<svg xmlns="http://www.w3.org/2000/svg" xmlns:xlink="http://www.w3.org/1999/xlink" width="1920" zoomAndPan="magnify" viewBox="0 0 1440 809.999993" height="1080" preserveAspectRatio="xMidYMid meet" version="1.0"><defs><g/><clipPath id="9f218bd335"><path d="M 148.378906 63.953125 L 1394 63.953125 L 1394 763.703125 L 148.378906 763.703125 Z M 148.378906 63.953125 " clip-rule="nonzero"/></clipPath></defs><rect x="-144" width="1728" fill="#ffffff" y="-80.999999" height="971.999992" fill-opacity="1"/><rect x="-144" width="1728" fill="#8291d5" y="-80.999999" height="971.999992" fill-opacity="1"/><g clip-path="url(#9f218bd335)"><path fill="#ffffff" d="M 148.378906 63.953125 L 148.378906 117.953125 L 321.109375 117.953125 L 321.109375 63.953125 Z M 327.109375 63.953125 L 327.109375 117.953125 L 499.84375 117.953125 L 499.84375 63.953125 Z M 505.84375 63.953125 L 505.84375 117.953125 L 678.574219 117.953125 L 678.574219 63.953125 Z M 684.574219 63.953125 L 684.574219 117.953125 L 857.304688 117.953125 L 857.304688 63.953125 Z M 863.304688 63.953125 L 863.304688 117.953125 L 1036.035156 117.953125 L 1036.035156 63.953125 Z M 1042.035156 63.953125 L 1042.035156 117.953125 L 1214.769531 117.953125 L 1214.769531 63.953125 Z M 1220.769531 63.953125 L 1220.769531 117.953125 L 1393.5 117.953125 L 1393.5 63.953125 Z M 148.378906 123.953125 L 148.378906 247.023438 L 321.109375 247.023438 L 321.109375 123.953125 Z M 327.109375 123.953125 L 327.109375 247.023438 L 499.84375 247.023438 L 499.84375 123.953125 Z M 505.84375 123.953125 L 505.84375 247.023438 L 678.574219 247.023438 L 678.574219 123.953125 Z M 684.574219 123.953125 L 684.574219 247.023438 L 857.304688 247.023438 L 857.304688 123.953125 Z M 863.304688 123.953125 L 863.304688 247.023438 L 1036.035156 247.023438 L 1036.035156 123.953125 Z M 1042.035156 123.953125 L 1042.035156 247.023438 L 1214.769531 247.023438 L 1214.769531 123.953125 Z M 1220.769531 123.953125 L 1220.769531 247.023438 L 1393.5 247.023438 L 1393.5 123.953125 Z M 148.378906 253.023438 L 148.378906 376.089844 L 321.109375 376.089844 L 321.109375 253.023438 Z M 327.109375 253.023438 L 327.109375 376.089844 L 499.84375 376.089844 L 499.84375 253.023438 Z M 505.84375 253.023438 L 505.84375 376.089844 L 678.574219 376.089844 L 678.574219 253.023438 Z M 684.574219 253.023438 L 684.574219 376.089844 L 857.304688 376.089844 L 857.304688 253.023438 Z M 863.304688 253.023438 L 863.304688 376.089844 L 1036.035156 376.089844 L 1036.035156 253.023438 Z M 1042.035156 253.023438 L 1042.035156 376.089844 L 1214.769531 376.089844 L 1214.769531 253.023438 Z M 1220.769531 253.023438 L 1220.769531 376.089844 L 1393.5 376.089844 L 1393.5 253.023438 Z M 148.378906 382.089844 L 148.378906 505.160156 L 321.109375 505.160156 L 321.109375 382.089844 Z M 327.109375 382.089844 L 327.109375 505.160156 L 499.84375 505.160156 L 499.84375 382.089844 Z M 505.84375 382.089844 L 505.84375 505.160156 L 678.574219 505.160156 L 678.574219 382.089844 Z M 684.574219 382.089844 L 684.574219 505.160156 L 857.304688 505.160156 L 857.304688 382.089844 Z M 863.304688 382.089844 L 863.304688 505.160156 L 1036.035156 505.160156 L 1036.035156 382.089844 Z M 1042.035156 382.089844 L 1042.035156 505.160156 L 1214.769531 505.160156 L 1214.769531 382.089844 Z M 1220.769531 382.089844 L 1220.769531 505.160156 L 1393.5 505.160156 L 1393.5 382.089844 Z M 148.378906 511.160156 L 148.378906 634.226562 L 321.109375 634.226562 L 321.109375 511.160156 Z M 327.109375 511.160156 L 327.109375 634.226562 L 499.84375 634.226562 L 499.84375 511.160156 Z M 505.84375 511.160156 L 505.84375 634.226562 L 678.574219 634.226562 L 678.574219 511.160156 Z M 684.574219 511.160156 L 684.574219 634.226562 L 857.304688 634.226562 L 857.304688 511.160156 Z M 863.304688 511.160156 L 863.304688 634.226562 L 1036.035156 634.226562 L 1036.035156 511.160156 Z M 1042.035156 511.160156 L 1042.035156 634.226562 L 1214.769531 634.226562 L 1214.769531 511.160156 Z M 1220.769531 511.160156 L 1220.769531 634.226562 L 1393.5 634.226562 L 1393.5 511.160156 Z M 148.378906 640.226562 L 148.378906 763.296875 L 321.109375 763.296875 L 321.109375 640.226562 Z M 327.109375 640.226562 L 327.109375 763.296875 L 499.84375 763.296875 L 499.84375 640.226562 Z M 505.84375 640.226562 L 505.84375 763.296875 L 678.574219 763.296875 L 678.574219 640.226562 Z M 684.574219 640.226562 L 684.574219 763.296875 L 857.304688 763.296875 L 857.304688 640.226562 Z M 863.304688 640.226562 L 863.304688 763.296875 L 1036.035156 763.296875 L 1036.035156 640.226562 Z M 1042.035156 640.226562 L 1042.035156 763.296875 L 1214.769531 763.296875 L 1214.769531 640.226562 Z M 1220.769531 640.226562 L 1220.769531 763.296875 L 1393.5 763.296875 L 1393.5 640.226562 Z M 1220.769531 640.226562 " fill-opacity="1" fill-rule="nonzero"/></g><g fill="#737373" fill-opacity="1"><g transform="translate(201.382218, 92.603262)"><g><path d="M 2.015625 0 L 2.015625 -16.796875 L 8.65625 -16.796875 C 10.4375 -16.796875 11.988281 -16.441406 13.3125 -15.734375 C 14.644531 -15.035156 15.675781 -14.050781 16.40625 -12.78125 C 17.144531 -11.519531 17.515625 -10.0625 17.515625 -8.40625 C 17.515625 -6.71875 17.144531 -5.242188 16.40625 -3.984375 C 15.675781 -2.734375 14.644531 -1.753906 13.3125 -1.046875 C 11.988281 -0.347656 10.4375 0 8.65625 0 Z M 5.828125 -3.5 L 8.59375 -3.5 C 9.582031 -3.5 10.453125 -3.703125 11.203125 -4.109375 C 11.960938 -4.523438 12.550781 -5.097656 12.96875 -5.828125 C 13.394531 -6.566406 13.609375 -7.425781 13.609375 -8.40625 C 13.609375 -9.394531 13.394531 -10.253906 12.96875 -10.984375 C 12.550781 -11.710938 11.960938 -12.28125 11.203125 -12.6875 C 10.441406 -13.09375 9.554688 -13.296875 8.546875 -13.296875 L 5.828125 -13.296875 Z M 5.828125 -3.5 "/></g></g></g><g fill="#737373" fill-opacity="1"><g transform="translate(222.805131, 92.603262)"><g><path d="M 9.984375 0.34375 C 8.242188 0.34375 6.695312 -0.0234375 5.34375 -0.765625 C 3.988281 -1.515625 2.929688 -2.546875 2.171875 -3.859375 C 1.410156 -5.171875 1.03125 -6.6875 1.03125 -8.40625 C 1.03125 -10.113281 1.410156 -11.625 2.171875 -12.9375 C 2.929688 -14.25 3.988281 -15.273438 5.34375 -16.015625 C 6.695312 -16.765625 8.242188 -17.140625 9.984375 -17.140625 C 11.742188 -17.140625 13.296875 -16.765625 14.640625 -16.015625 C 15.984375 -15.273438 17.035156 -14.25 17.796875 -12.9375 C 18.566406 -11.625 18.953125 -10.113281 18.953125 -8.40625 C 18.953125 -6.6875 18.566406 -5.171875 17.796875 -3.859375 C 17.035156 -2.546875 15.984375 -1.515625 14.640625 -0.765625 C 13.296875 -0.0234375 11.742188 0.34375 9.984375 0.34375 Z M 4.921875 -8.40625 C 4.921875 -7.394531 5.132812 -6.503906 5.5625 -5.734375 C 6 -4.960938 6.597656 -4.359375 7.359375 -3.921875 C 8.117188 -3.492188 8.992188 -3.28125 9.984375 -3.28125 C 10.992188 -3.28125 11.878906 -3.492188 12.640625 -3.921875 C 13.398438 -4.359375 13.988281 -4.960938 14.40625 -5.734375 C 14.832031 -6.503906 15.046875 -7.394531 15.046875 -8.40625 C 15.046875 -9.40625 14.832031 -10.289062 14.40625 -11.0625 C 13.988281 -11.832031 13.398438 -12.429688 12.640625 -12.859375 C 11.878906 -13.296875 10.992188 -13.515625 9.984375 -13.515625 C 8.992188 -13.515625 8.117188 -13.296875 7.359375 -12.859375 C 6.597656 -12.429688 6 -11.832031 5.5625 -11.0625 C 5.132812 -10.289062 4.921875 -9.40625 4.921875 -8.40625 Z M 4.921875 -8.40625 "/></g></g></g><g fill="#737373" fill-opacity="1"><g transform="translate(245.691319, 92.603262)"><g><path d="M 2.015625 0 L 2.015625 -16.796875 L 5.25 -16.796875 L 11.234375 -8.09375 L 17.1875 -16.796875 L 20.40625 -16.796875 L 20.40625 0 L 16.609375 0 L 16.609375 -10.109375 L 12.53125 -4.15625 L 9.890625 -4.15625 L 5.8125 -10.125 L 5.8125 0 Z M 2.015625 0 "/></g></g></g><g fill="#737373" fill-opacity="1"><g transform="translate(385.82073, 92.603262)"><g><path d="M 7.875 0.34375 C 6.46875 0.34375 5.253906 0.109375 4.234375 -0.359375 C 3.222656 -0.828125 2.441406 -1.488281 1.890625 -2.34375 C 1.335938 -3.195312 1.0625 -4.203125 1.0625 -5.359375 L 4.796875 -5.359375 C 4.796875 -4.554688 5.070312 -3.929688 5.625 -3.484375 C 6.175781 -3.035156 6.914062 -2.8125 7.84375 -2.8125 C 8.644531 -2.8125 9.273438 -2.96875 9.734375 -3.28125 C 10.203125 -3.59375 10.4375 -4.023438 10.4375 -4.578125 C 10.4375 -5.171875 10.15625 -5.648438 9.59375 -6.015625 C 9.039062 -6.390625 8.171875 -6.703125 6.984375 -6.953125 C 5.015625 -7.367188 3.554688 -8 2.609375 -8.84375 C 1.671875 -9.695312 1.203125 -10.804688 1.203125 -12.171875 C 1.203125 -13.703125 1.757812 -14.910156 2.875 -15.796875 C 4 -16.691406 5.53125 -17.140625 7.46875 -17.140625 C 8.789062 -17.140625 9.941406 -16.910156 10.921875 -16.453125 C 11.898438 -15.992188 12.65625 -15.351562 13.1875 -14.53125 C 13.71875 -13.707031 13.984375 -12.726562 13.984375 -11.59375 L 10.3125 -11.59375 C 10.3125 -12.34375 10.0625 -12.929688 9.5625 -13.359375 C 9.070312 -13.796875 8.390625 -14.015625 7.515625 -14.015625 C 6.710938 -14.015625 6.078125 -13.859375 5.609375 -13.546875 C 5.148438 -13.234375 4.921875 -12.796875 4.921875 -12.234375 C 4.921875 -11.722656 5.175781 -11.289062 5.6875 -10.9375 C 6.195312 -10.59375 7.09375 -10.265625 8.375 -9.953125 C 10.46875 -9.460938 11.976562 -8.800781 12.90625 -7.96875 C 13.832031 -7.132812 14.296875 -6.054688 14.296875 -4.734375 C 14.296875 -3.148438 13.722656 -1.90625 12.578125 -1 C 11.441406 -0.101562 9.875 0.34375 7.875 0.34375 Z M 7.875 0.34375 "/></g></g></g><g fill="#737373" fill-opacity="1"><g transform="translate(404.101175, 92.603262)"><g><path d="M 2.015625 0 L 2.015625 -16.796875 L 13.0625 -16.796875 L 13.0625 -13.578125 L 5.8125 -13.578125 L 5.8125 -10.109375 L 12.40625 -10.109375 L 12.40625 -6.90625 L 5.8125 -6.90625 L 5.8125 -3.234375 L 13.3125 -3.234375 L 13.3125 0 Z M 2.015625 0 "/></g></g></g><g fill="#737373" fill-opacity="1"><g transform="translate(421.542035, 92.603262)"><g><path d="M 9.84375 0.34375 C 8.125 0.34375 6.597656 -0.0234375 5.265625 -0.765625 C 3.941406 -1.515625 2.90625 -2.546875 2.15625 -3.859375 C 1.40625 -5.171875 1.03125 -6.6875 1.03125 -8.40625 C 1.03125 -10.113281 1.398438 -11.625 2.140625 -12.9375 C 2.890625 -14.25 3.921875 -15.273438 5.234375 -16.015625 C 6.554688 -16.765625 8.066406 -17.140625 9.765625 -17.140625 C 11.128906 -17.140625 12.382812 -16.898438 13.53125 -16.421875 C 14.6875 -15.941406 15.664062 -15.265625 16.46875 -14.390625 C 17.28125 -13.515625 17.851562 -12.484375 18.1875 -11.296875 L 14.09375 -11.296875 C 13.6875 -12.035156 13.109375 -12.609375 12.359375 -13.015625 C 11.617188 -13.421875 10.78125 -13.625 9.84375 -13.625 C 8.863281 -13.625 8 -13.398438 7.25 -12.953125 C 6.5 -12.503906 5.910156 -11.890625 5.484375 -11.109375 C 5.054688 -10.328125 4.84375 -9.425781 4.84375 -8.40625 C 4.84375 -7.394531 5.050781 -6.492188 5.46875 -5.703125 C 5.882812 -4.921875 6.46875 -4.300781 7.21875 -3.84375 C 7.976562 -3.394531 8.867188 -3.171875 9.890625 -3.171875 C 11.117188 -3.171875 12.140625 -3.484375 12.953125 -4.109375 C 13.773438 -4.734375 14.304688 -5.554688 14.546875 -6.578125 L 9.09375 -6.578125 L 9.09375 -9.53125 L 18.578125 -9.53125 C 18.671875 -8.09375 18.53125 -6.769531 18.15625 -5.5625 C 17.78125 -4.363281 17.203125 -3.320312 16.421875 -2.4375 C 15.648438 -1.550781 14.707031 -0.863281 13.59375 -0.375 C 12.476562 0.101562 11.226562 0.34375 9.84375 0.34375 Z M 9.84375 0.34375 "/></g></g></g><g fill="#737373" fill-opacity="1"><g transform="translate(565.630347, 92.603262)"><g><path d="M 6.046875 0 L 6.046875 -13.21875 L 0.71875 -13.21875 L 0.71875 -16.796875 L 15.1875 -16.796875 L 15.1875 -13.21875 L 9.859375 -13.21875 L 9.859375 0 Z M 6.046875 0 "/></g></g></g><g fill="#737373" fill-opacity="1"><g transform="translate(584.438537, 92.603262)"><g><path d="M 2.015625 0 L 2.015625 -16.796875 L 13.0625 -16.796875 L 13.0625 -13.578125 L 5.8125 -13.578125 L 5.8125 -10.109375 L 12.40625 -10.109375 L 12.40625 -6.90625 L 5.8125 -6.90625 L 5.8125 -3.234375 L 13.3125 -3.234375 L 13.3125 0 Z M 2.015625 0 "/></g></g></g><g fill="#737373" fill-opacity="1"><g transform="translate(601.879397, 92.603262)"><g><path d="M 2.015625 0 L 2.015625 -16.796875 L 9.1875 -16.796875 C 10.46875 -16.796875 11.578125 -16.5625 12.515625 -16.09375 C 13.460938 -15.632812 14.191406 -14.972656 14.703125 -14.109375 C 15.222656 -13.242188 15.484375 -12.210938 15.484375 -11.015625 C 15.484375 -9.785156 15.203125 -8.722656 14.640625 -7.828125 C 14.078125 -6.941406 13.289062 -6.273438 12.28125 -5.828125 L 15.765625 0 L 11.359375 0 L 8.359375 -5.234375 L 5.828125 -5.234375 L 5.828125 0 Z M 5.78125 -8.453125 L 8.6875 -8.453125 C 9.632812 -8.453125 10.359375 -8.671875 10.859375 -9.109375 C 11.359375 -9.546875 11.609375 -10.171875 11.609375 -10.984375 C 11.609375 -11.804688 11.359375 -12.4375 10.859375 -12.875 C 10.359375 -13.3125 9.632812 -13.53125 8.6875 -13.53125 L 5.78125 -13.53125 Z M 5.78125 -8.453125 "/></g></g></g><g fill="#737373" fill-opacity="1"><g transform="translate(740.400857, 92.603262)"><g><path d="M 9.984375 0.34375 C 8.242188 0.34375 6.695312 -0.0234375 5.34375 -0.765625 C 3.988281 -1.515625 2.929688 -2.546875 2.171875 -3.859375 C 1.410156 -5.171875 1.03125 -6.6875 1.03125 -8.40625 C 1.03125 -10.113281 1.410156 -11.625 2.171875 -12.9375 C 2.929688 -14.25 3.988281 -15.273438 5.34375 -16.015625 C 6.695312 -16.765625 8.242188 -17.140625 9.984375 -17.140625 C 11.742188 -17.140625 13.296875 -16.765625 14.640625 -16.015625 C 15.984375 -15.273438 17.035156 -14.25 17.796875 -12.9375 C 18.566406 -11.625 18.953125 -10.113281 18.953125 -8.40625 C 18.953125 -6.5625 18.5 -4.9375 17.59375 -3.53125 C 16.695312 -2.132812 15.488281 -1.109375 13.96875 -0.453125 L 14.15625 0 C 14.332031 0.382812 14.507812 0.675781 14.6875 0.875 C 14.875 1.070312 15.125 1.210938 15.4375 1.296875 C 15.75 1.378906 16.164062 1.421875 16.6875 1.421875 L 18 1.421875 L 18 4.375 L 15.859375 4.375 C 13.429688 4.375 11.773438 3.332031 10.890625 1.25 L 10.515625 0.3125 Z M 4.921875 -8.40625 C 4.921875 -7.394531 5.132812 -6.503906 5.5625 -5.734375 C 6 -4.960938 6.597656 -4.359375 7.359375 -3.921875 C 8.117188 -3.492188 8.992188 -3.28125 9.984375 -3.28125 C 10.992188 -3.28125 11.878906 -3.492188 12.640625 -3.921875 C 13.398438 -4.359375 13.988281 -4.960938 14.40625 -5.734375 C 14.832031 -6.503906 15.046875 -7.394531 15.046875 -8.40625 C 15.046875 -9.40625 14.832031 -10.289062 14.40625 -11.0625 C 13.988281 -11.832031 13.398438 -12.429688 12.640625 -12.859375 C 11.878906 -13.296875 10.992188 -13.515625 9.984375 -13.515625 C 8.992188 -13.515625 8.117188 -13.296875 7.359375 -12.859375 C 6.597656 -12.429688 6 -11.832031 5.5625 -11.0625 C 5.132812 -10.289062 4.921875 -9.40625 4.921875 -8.40625 Z M 4.921875 -8.40625 "/></g></g></g><g fill="#737373" fill-opacity="1"><g transform="translate(763.287045, 92.603262)"><g><path d="M 8.875 0.34375 C 7.425781 0.34375 6.175781 0.0507812 5.125 -0.53125 C 4.070312 -1.125 3.257812 -1.957031 2.6875 -3.03125 C 2.125 -4.113281 1.84375 -5.40625 1.84375 -6.90625 L 1.84375 -16.796875 L 5.65625 -16.796875 L 5.65625 -7.171875 C 5.65625 -4.578125 6.726562 -3.28125 8.875 -3.28125 C 11.019531 -3.28125 12.09375 -4.578125 12.09375 -7.171875 L 12.09375 -16.796875 L 15.90625 -16.796875 L 15.90625 -6.90625 C 15.90625 -5.40625 15.617188 -4.113281 15.046875 -3.03125 C 14.484375 -1.957031 13.675781 -1.125 12.625 -0.53125 C 11.582031 0.0507812 10.332031 0.34375 8.875 0.34375 Z M 8.875 0.34375 "/></g></g></g><g fill="#737373" fill-opacity="1"><g transform="translate(783.942334, 92.603262)"><g><path d="M 0.21875 0 L 6.890625 -16.796875 L 10.625 -16.796875 L 17.296875 0 L 13.21875 0 L 12.09375 -2.90625 L 5.421875 -2.90625 L 4.296875 0 Z M 6.40625 -5.90625 L 11.140625 -5.90625 L 8.765625 -12.046875 Z M 6.40625 -5.90625 "/></g></g></g><g fill="#737373" fill-opacity="1"><g transform="translate(923.972315, 92.603262)"><g><path d="M 9.984375 0.34375 C 8.242188 0.34375 6.695312 -0.0234375 5.34375 -0.765625 C 3.988281 -1.515625 2.929688 -2.546875 2.171875 -3.859375 C 1.410156 -5.171875 1.03125 -6.6875 1.03125 -8.40625 C 1.03125 -10.113281 1.410156 -11.625 2.171875 -12.9375 C 2.929688 -14.25 3.988281 -15.273438 5.34375 -16.015625 C 6.695312 -16.765625 8.242188 -17.140625 9.984375 -17.140625 C 11.742188 -17.140625 13.296875 -16.765625 14.640625 -16.015625 C 15.984375 -15.273438 17.035156 -14.25 17.796875 -12.9375 C 18.566406 -11.625 18.953125 -10.113281 18.953125 -8.40625 C 18.953125 -6.5625 18.5 -4.9375 17.59375 -3.53125 C 16.695312 -2.132812 15.488281 -1.109375 13.96875 -0.453125 L 14.15625 0 C 14.332031 0.382812 14.507812 0.675781 14.6875 0.875 C 14.875 1.070312 15.125 1.210938 15.4375 1.296875 C 15.75 1.378906 16.164062 1.421875 16.6875 1.421875 L 18 1.421875 L 18 4.375 L 15.859375 4.375 C 13.429688 4.375 11.773438 3.332031 10.890625 1.25 L 10.515625 0.3125 Z M 4.921875 -8.40625 C 4.921875 -7.394531 5.132812 -6.503906 5.5625 -5.734375 C 6 -4.960938 6.597656 -4.359375 7.359375 -3.921875 C 8.117188 -3.492188 8.992188 -3.28125 9.984375 -3.28125 C 10.992188 -3.28125 11.878906 -3.492188 12.640625 -3.921875 C 13.398438 -4.359375 13.988281 -4.960938 14.40625 -5.734375 C 14.832031 -6.503906 15.046875 -7.394531 15.046875 -8.40625 C 15.046875 -9.40625 14.832031 -10.289062 14.40625 -11.0625 C 13.988281 -11.832031 13.398438 -12.429688 12.640625 -12.859375 C 11.878906 -13.296875 10.992188 -13.515625 9.984375 -13.515625 C 8.992188 -13.515625 8.117188 -13.296875 7.359375 -12.859375 C 6.597656 -12.429688 6 -11.832031 5.5625 -11.0625 C 5.132812 -10.289062 4.921875 -9.40625 4.921875 -8.40625 Z M 4.921875 -8.40625 "/></g></g></g><g fill="#737373" fill-opacity="1"><g transform="translate(946.858504, 92.603262)"><g><path d="M 8.875 0.34375 C 7.425781 0.34375 6.175781 0.0507812 5.125 -0.53125 C 4.070312 -1.125 3.257812 -1.957031 2.6875 -3.03125 C 2.125 -4.113281 1.84375 -5.40625 1.84375 -6.90625 L 1.84375 -16.796875 L 5.65625 -16.796875 L 5.65625 -7.171875 C 5.65625 -4.578125 6.726562 -3.28125 8.875 -3.28125 C 11.019531 -3.28125 12.09375 -4.578125 12.09375 -7.171875 L 12.09375 -16.796875 L 15.90625 -16.796875 L 15.90625 -6.90625 C 15.90625 -5.40625 15.617188 -4.113281 15.046875 -3.03125 C 14.484375 -1.957031 13.675781 -1.125 12.625 -0.53125 C 11.582031 0.0507812 10.332031 0.34375 8.875 0.34375 Z M 8.875 0.34375 "/></g></g></g><g fill="#737373" fill-opacity="1"><g transform="translate(967.513792, 92.603262)"><g><path d="M 2.015625 0 L 2.015625 -16.796875 L 5.828125 -16.796875 L 5.828125 0 Z M 2.015625 0 "/></g></g></g><g fill="#737373" fill-opacity="1"><g transform="translate(1101.695926, 92.603262)"><g><path d="M 7.875 0.34375 C 6.46875 0.34375 5.253906 0.109375 4.234375 -0.359375 C 3.222656 -0.828125 2.441406 -1.488281 1.890625 -2.34375 C 1.335938 -3.195312 1.0625 -4.203125 1.0625 -5.359375 L 4.796875 -5.359375 C 4.796875 -4.554688 5.070312 -3.929688 5.625 -3.484375 C 6.175781 -3.035156 6.914062 -2.8125 7.84375 -2.8125 C 8.644531 -2.8125 9.273438 -2.96875 9.734375 -3.28125 C 10.203125 -3.59375 10.4375 -4.023438 10.4375 -4.578125 C 10.4375 -5.171875 10.15625 -5.648438 9.59375 -6.015625 C 9.039062 -6.390625 8.171875 -6.703125 6.984375 -6.953125 C 5.015625 -7.367188 3.554688 -8 2.609375 -8.84375 C 1.671875 -9.695312 1.203125 -10.804688 1.203125 -12.171875 C 1.203125 -13.703125 1.757812 -14.910156 2.875 -15.796875 C 4 -16.691406 5.53125 -17.140625 7.46875 -17.140625 C 8.789062 -17.140625 9.941406 -16.910156 10.921875 -16.453125 C 11.898438 -15.992188 12.65625 -15.351562 13.1875 -14.53125 C 13.71875 -13.707031 13.984375 -12.726562 13.984375 -11.59375 L 10.3125 -11.59375 C 10.3125 -12.34375 10.0625 -12.929688 9.5625 -13.359375 C 9.070312 -13.796875 8.390625 -14.015625 7.515625 -14.015625 C 6.710938 -14.015625 6.078125 -13.859375 5.609375 -13.546875 C 5.148438 -13.234375 4.921875 -12.796875 4.921875 -12.234375 C 4.921875 -11.722656 5.175781 -11.289062 5.6875 -10.9375 C 6.195312 -10.59375 7.09375 -10.265625 8.375 -9.953125 C 10.46875 -9.460938 11.976562 -8.800781 12.90625 -7.96875 C 13.832031 -7.132812 14.296875 -6.054688 14.296875 -4.734375 C 14.296875 -3.148438 13.722656 -1.90625 12.578125 -1 C 11.441406 -0.101562 9.875 0.34375 7.875 0.34375 Z M 7.875 0.34375 "/></g></g></g><g fill="#737373" fill-opacity="1"><g transform="translate(1119.976371, 92.603262)"><g><path d="M 2.015625 0 L 2.015625 -16.796875 L 13.0625 -16.796875 L 13.0625 -13.578125 L 5.8125 -13.578125 L 5.8125 -10.109375 L 12.40625 -10.109375 L 12.40625 -6.90625 L 5.8125 -6.90625 L 5.8125 -3.234375 L 13.3125 -3.234375 L 13.3125 0 Z M 2.015625 0 "/></g></g></g><g fill="#737373" fill-opacity="1"><g transform="translate(1137.417232, 92.603262)"><g><path d="M 0.640625 0 L 6.359375 -8.59375 L 0.90625 -16.796875 L 5.28125 -16.796875 L 7.296875 -13.6875 L 8.828125 -11.359375 L 12.40625 -16.796875 L 16.75 -16.796875 L 11.328125 -8.609375 L 17.046875 0 L 12.546875 0 L 10.25 -3.546875 L 8.859375 -5.6875 L 7.4375 -3.546875 L 5.140625 0 Z M 0.640625 0 "/></g></g></g><g fill="#737373" fill-opacity="1"><g transform="translate(1279.513407, 92.603262)"><g><path d="M 7.875 0.34375 C 6.46875 0.34375 5.253906 0.109375 4.234375 -0.359375 C 3.222656 -0.828125 2.441406 -1.488281 1.890625 -2.34375 C 1.335938 -3.195312 1.0625 -4.203125 1.0625 -5.359375 L 4.796875 -5.359375 C 4.796875 -4.554688 5.070312 -3.929688 5.625 -3.484375 C 6.175781 -3.035156 6.914062 -2.8125 7.84375 -2.8125 C 8.644531 -2.8125 9.273438 -2.96875 9.734375 -3.28125 C 10.203125 -3.59375 10.4375 -4.023438 10.4375 -4.578125 C 10.4375 -5.171875 10.15625 -5.648438 9.59375 -6.015625 C 9.039062 -6.390625 8.171875 -6.703125 6.984375 -6.953125 C 5.015625 -7.367188 3.554688 -8 2.609375 -8.84375 C 1.671875 -9.695312 1.203125 -10.804688 1.203125 -12.171875 C 1.203125 -13.703125 1.757812 -14.910156 2.875 -15.796875 C 4 -16.691406 5.53125 -17.140625 7.46875 -17.140625 C 8.789062 -17.140625 9.941406 -16.910156 10.921875 -16.453125 C 11.898438 -15.992188 12.65625 -15.351562 13.1875 -14.53125 C 13.71875 -13.707031 13.984375 -12.726562 13.984375 -11.59375 L 10.3125 -11.59375 C 10.3125 -12.34375 10.0625 -12.929688 9.5625 -13.359375 C 9.070312 -13.796875 8.390625 -14.015625 7.515625 -14.015625 C 6.710938 -14.015625 6.078125 -13.859375 5.609375 -13.546875 C 5.148438 -13.234375 4.921875 -12.796875 4.921875 -12.234375 C 4.921875 -11.722656 5.175781 -11.289062 5.6875 -10.9375 C 6.195312 -10.59375 7.09375 -10.265625 8.375 -9.953125 C 10.46875 -9.460938 11.976562 -8.800781 12.90625 -7.96875 C 13.832031 -7.132812 14.296875 -6.054688 14.296875 -4.734375 C 14.296875 -3.148438 13.722656 -1.90625 12.578125 -1 C 11.441406 -0.101562 9.875 0.34375 7.875 0.34375 Z M 7.875 0.34375 "/></g></g></g><g fill="#737373" fill-opacity="1"><g transform="translate(1297.793852, 92.603262)"><g><path d="M 0.21875 0 L 6.890625 -16.796875 L 10.625 -16.796875 L 17.296875 0 L 13.21875 0 L 12.09375 -2.90625 L 5.421875 -2.90625 L 4.296875 0 Z M 6.40625 -5.90625 L 11.140625 -5.90625 L 8.765625 -12.046875 Z M 7.390625 -18.40625 L 8.8125 -21.90625 L 12.03125 -21.90625 L 10.125 -18.40625 Z M 7.390625 -18.40625 "/></g></g></g><g fill="#737373" fill-opacity="1"><g transform="translate(1318.209249, 92.603262)"><g><path d="M 2.015625 0 L 2.015625 -16.796875 L 9.53125 -16.796875 C 11.238281 -16.796875 12.597656 -16.390625 13.609375 -15.578125 C 14.617188 -14.765625 15.125 -13.664062 15.125 -12.28125 C 15.125 -11.5 14.945312 -10.785156 14.59375 -10.140625 C 14.238281 -9.503906 13.742188 -9.003906 13.109375 -8.640625 C 13.898438 -8.285156 14.515625 -7.765625 14.953125 -7.078125 C 15.398438 -6.390625 15.625 -5.597656 15.625 -4.703125 C 15.625 -3.753906 15.382812 -2.925781 14.90625 -2.21875 C 14.425781 -1.519531 13.753906 -0.972656 12.890625 -0.578125 C 12.035156 -0.191406 11.039062 0 9.90625 0 Z M 5.78125 -3.03125 L 9.34375 -3.03125 C 10.09375 -3.03125 10.675781 -3.203125 11.09375 -3.546875 C 11.507812 -3.898438 11.71875 -4.398438 11.71875 -5.046875 C 11.71875 -5.679688 11.507812 -6.175781 11.09375 -6.53125 C 10.675781 -6.882812 10.09375 -7.0625 9.34375 -7.0625 L 5.78125 -7.0625 Z M 5.78125 -9.953125 L 8.953125 -9.953125 C 9.691406 -9.953125 10.253906 -10.117188 10.640625 -10.453125 C 11.035156 -10.796875 11.234375 -11.269531 11.234375 -11.875 C 11.234375 -12.488281 11.035156 -12.957031 10.640625 -13.28125 C 10.253906 -13.613281 9.691406 -13.78125 8.953125 -13.78125 L 5.78125 -13.78125 Z M 5.78125 -9.953125 "/></g></g></g><g fill="#737373" fill-opacity="1"><g transform="translate(513.34246, 151.103288)"><g><path d="M 4.15625 0 L 4.15625 -10.609375 L 0.78125 -10.609375 L 0.78125 -12.328125 L 2.390625 -12.328125 C 3.035156 -12.328125 3.488281 -12.414062 3.75 -12.59375 C 4.019531 -12.78125 4.210938 -13.125 4.328125 -13.625 L 4.5625 -14.703125 L 6 -14.703125 L 6 0 Z M 4.15625 0 "/></g></g></g><g fill="#737373" fill-opacity="1"><g transform="translate(692.073907, 151.103288)"><g><path d="M 1.515625 0 L 1.515625 -1.390625 L 7.609375 -6.96875 C 8.304688 -7.625 8.820312 -8.234375 9.15625 -8.796875 C 9.488281 -9.367188 9.65625 -9.957031 9.65625 -10.5625 C 9.65625 -11.40625 9.367188 -12.082031 8.796875 -12.59375 C 8.234375 -13.101562 7.5 -13.359375 6.59375 -13.359375 C 5.65625 -13.359375 4.894531 -13.070312 4.3125 -12.5 C 3.726562 -11.9375 3.425781 -11.144531 3.40625 -10.125 L 1.6875 -10.125 C 1.707031 -11.101562 1.925781 -11.957031 2.34375 -12.6875 C 2.757812 -13.414062 3.328125 -13.976562 4.046875 -14.375 C 4.765625 -14.769531 5.609375 -14.96875 6.578125 -14.96875 C 7.515625 -14.96875 8.347656 -14.78125 9.078125 -14.40625 C 9.816406 -14.03125 10.394531 -13.507812 10.8125 -12.84375 C 11.226562 -12.1875 11.4375 -11.425781 11.4375 -10.5625 C 11.4375 -9.738281 11.21875 -8.910156 10.78125 -8.078125 C 10.351562 -7.253906 9.6875 -6.425781 8.78125 -5.59375 L 4.53125 -1.71875 L 11.734375 -1.71875 L 11.734375 0 Z M 1.515625 0 "/></g></g></g><g fill="#737373" fill-opacity="1"><g transform="translate(870.80545, 151.103288)"><g><path d="M 6.265625 0.265625 C 5.296875 0.265625 4.4375 0.0820312 3.6875 -0.28125 C 2.945312 -0.65625 2.367188 -1.179688 1.953125 -1.859375 C 1.535156 -2.535156 1.304688 -3.328125 1.265625 -4.234375 L 3.0625 -4.234375 C 3.125 -3.410156 3.441406 -2.75 4.015625 -2.25 C 4.597656 -1.757812 5.347656 -1.515625 6.265625 -1.515625 C 7.222656 -1.515625 7.988281 -1.78125 8.5625 -2.3125 C 9.132812 -2.851562 9.421875 -3.566406 9.421875 -4.453125 C 9.421875 -5.335938 9.132812 -6.039062 8.5625 -6.5625 C 7.988281 -7.082031 7.226562 -7.34375 6.28125 -7.34375 L 3.890625 -7.34375 L 3.890625 -8.671875 L 8.015625 -12.984375 L 1.515625 -12.984375 L 1.515625 -14.703125 L 10.765625 -14.703125 L 10.765625 -13.359375 L 6.609375 -9.03125 C 7.546875 -8.988281 8.363281 -8.765625 9.0625 -8.359375 C 9.769531 -7.960938 10.316406 -7.425781 10.703125 -6.75 C 11.085938 -6.070312 11.28125 -5.285156 11.28125 -4.390625 C 11.28125 -3.460938 11.066406 -2.648438 10.640625 -1.953125 C 10.222656 -1.253906 9.640625 -0.707031 8.890625 -0.3125 C 8.140625 0.0703125 7.265625 0.265625 6.265625 0.265625 Z M 6.265625 0.265625 "/></g></g></g><g fill="#737373" fill-opacity="1"><g transform="translate(1049.536825, 151.103288)"><g><path d="M 0.75 -3.109375 L 0.75 -4.515625 L 6.0625 -14.703125 L 8.171875 -14.703125 L 3 -4.828125 L 8.28125 -4.828125 L 8.40625 -9.484375 L 10.09375 -9.484375 L 10.09375 -4.875 L 12.078125 -4.875 L 12.078125 -3.109375 L 10.09375 -3.109375 L 10.09375 0 L 8.25 0 L 8.25 -3.109375 Z M 0.75 -3.109375 "/></g></g></g><g fill="#737373" fill-opacity="1"><g transform="translate(1228.268392, 151.103288)"><g><path d="M 6.359375 0.265625 C 5.390625 0.265625 4.535156 0.0820312 3.796875 -0.28125 C 3.066406 -0.65625 2.492188 -1.179688 2.078125 -1.859375 C 1.660156 -2.535156 1.429688 -3.328125 1.390625 -4.234375 L 3.1875 -4.234375 C 3.25 -3.398438 3.566406 -2.738281 4.140625 -2.25 C 4.722656 -1.757812 5.472656 -1.515625 6.390625 -1.515625 C 7.347656 -1.515625 8.113281 -1.78125 8.6875 -2.3125 C 9.269531 -2.851562 9.5625 -3.566406 9.5625 -4.453125 C 9.5625 -5.347656 9.269531 -6.054688 8.6875 -6.578125 C 8.101562 -7.109375 7.335938 -7.375 6.390625 -7.375 L 1.765625 -7.375 L 2.328125 -14.703125 L 10.734375 -14.703125 L 10.734375 -12.984375 L 4.015625 -12.984375 L 3.703125 -9.078125 L 6.390625 -9.078125 C 7.390625 -9.078125 8.265625 -8.878906 9.015625 -8.484375 C 9.765625 -8.085938 10.347656 -7.539062 10.765625 -6.84375 C 11.191406 -6.144531 11.40625 -5.332031 11.40625 -4.40625 C 11.40625 -3.488281 11.191406 -2.675781 10.765625 -1.96875 C 10.347656 -1.257812 9.757812 -0.707031 9 -0.3125 C 8.25 0.0703125 7.367188 0.265625 6.359375 0.265625 Z M 6.359375 0.265625 "/></g></g></g><g fill="#737373" fill-opacity="1"><g transform="translate(155.879442, 280.17188)"><g><path d="M 6.65625 0.265625 C 5.601562 0.265625 4.671875 0.0507812 3.859375 -0.375 C 3.046875 -0.8125 2.410156 -1.40625 1.953125 -2.15625 C 1.492188 -2.914062 1.265625 -3.78125 1.265625 -4.75 C 1.265625 -5.40625 1.375 -6.054688 1.59375 -6.703125 C 1.820312 -7.347656 2.144531 -7.976562 2.5625 -8.59375 L 6.703125 -14.703125 L 8.78125 -14.703125 L 5.3125 -9.5625 C 5.8125 -9.726562 6.359375 -9.8125 6.953125 -9.8125 C 7.921875 -9.8125 8.785156 -9.585938 9.546875 -9.140625 C 10.316406 -8.703125 10.921875 -8.101562 11.359375 -7.34375 C 11.804688 -6.59375 12.03125 -5.734375 12.03125 -4.765625 C 12.03125 -3.796875 11.796875 -2.929688 11.328125 -2.171875 C 10.867188 -1.410156 10.238281 -0.8125 9.4375 -0.375 C 8.632812 0.0507812 7.707031 0.265625 6.65625 0.265625 Z M 3.046875 -4.765625 C 3.046875 -4.109375 3.195312 -3.519531 3.5 -3 C 3.8125 -2.476562 4.238281 -2.070312 4.78125 -1.78125 C 5.332031 -1.488281 5.957031 -1.34375 6.65625 -1.34375 C 7.351562 -1.34375 7.972656 -1.488281 8.515625 -1.78125 C 9.066406 -2.070312 9.492188 -2.476562 9.796875 -3 C 10.109375 -3.519531 10.265625 -4.109375 10.265625 -4.765625 C 10.265625 -5.441406 10.109375 -6.035156 9.796875 -6.546875 C 9.492188 -7.054688 9.066406 -7.457031 8.515625 -7.75 C 7.972656 -8.039062 7.351562 -8.1875 6.65625 -8.1875 C 5.957031 -8.1875 5.332031 -8.039062 4.78125 -7.75 C 4.238281 -7.457031 3.8125 -7.054688 3.5 -6.546875 C 3.195312 -6.035156 3.046875 -5.441406 3.046875 -4.765625 Z M 3.046875 -4.765625 "/></g></g></g><g fill="#737373" fill-opacity="1"><g transform="translate(334.610937, 280.17188)"><g><path d="M 2.796875 0 L 8.3125 -12.984375 L 0.875 -12.984375 L 0.875 -14.703125 L 10.484375 -14.703125 L 10.484375 -13.375 L 4.765625 0 Z M 2.796875 0 "/></g></g></g><g fill="#737373" fill-opacity="1"><g transform="translate(513.34246, 280.17188)"><g><path d="M 6.46875 0.265625 C 5.414062 0.265625 4.492188 0.0859375 3.703125 -0.265625 C 2.910156 -0.617188 2.289062 -1.109375 1.84375 -1.734375 C 1.394531 -2.367188 1.171875 -3.097656 1.171875 -3.921875 C 1.171875 -4.722656 1.382812 -5.441406 1.8125 -6.078125 C 2.238281 -6.710938 2.835938 -7.207031 3.609375 -7.5625 C 2.953125 -7.90625 2.4375 -8.367188 2.0625 -8.953125 C 1.695312 -9.535156 1.515625 -10.195312 1.515625 -10.9375 C 1.515625 -11.738281 1.71875 -12.441406 2.125 -13.046875 C 2.539062 -13.660156 3.125 -14.132812 3.875 -14.46875 C 4.625 -14.800781 5.488281 -14.96875 6.46875 -14.96875 C 7.445312 -14.96875 8.304688 -14.800781 9.046875 -14.46875 C 9.785156 -14.132812 10.363281 -13.660156 10.78125 -13.046875 C 11.207031 -12.441406 11.421875 -11.738281 11.421875 -10.9375 C 11.421875 -10.195312 11.234375 -9.535156 10.859375 -8.953125 C 10.492188 -8.367188 9.984375 -7.90625 9.328125 -7.5625 C 10.078125 -7.207031 10.671875 -6.710938 11.109375 -6.078125 C 11.546875 -5.441406 11.765625 -4.722656 11.765625 -3.921875 C 11.765625 -3.097656 11.539062 -2.367188 11.09375 -1.734375 C 10.644531 -1.109375 10.023438 -0.617188 9.234375 -0.265625 C 8.441406 0.0859375 7.519531 0.265625 6.46875 0.265625 Z M 2.9375 -4.03125 C 2.9375 -3.21875 3.257812 -2.566406 3.90625 -2.078125 C 4.550781 -1.585938 5.40625 -1.34375 6.46875 -1.34375 C 7.519531 -1.34375 8.367188 -1.585938 9.015625 -2.078125 C 9.671875 -2.566406 10 -3.21875 10 -4.03125 C 10 -4.84375 9.671875 -5.488281 9.015625 -5.96875 C 8.367188 -6.457031 7.519531 -6.703125 6.46875 -6.703125 C 5.40625 -6.703125 4.550781 -6.457031 3.90625 -5.96875 C 3.257812 -5.488281 2.9375 -4.84375 2.9375 -4.03125 Z M 3.28125 -10.84375 C 3.28125 -10.082031 3.570312 -9.46875 4.15625 -9 C 4.75 -8.539062 5.519531 -8.3125 6.46875 -8.3125 C 7.414062 -8.3125 8.179688 -8.539062 8.765625 -9 C 9.359375 -9.46875 9.65625 -10.082031 9.65625 -10.84375 C 9.65625 -11.59375 9.359375 -12.203125 8.765625 -12.671875 C 8.179688 -13.140625 7.414062 -13.375 6.46875 -13.375 C 5.519531 -13.375 4.75 -13.140625 4.15625 -12.671875 C 3.570312 -12.203125 3.28125 -11.59375 3.28125 -10.84375 Z M 3.28125 -10.84375 "/></g></g></g><g fill="#737373" fill-opacity="1"><g transform="translate(692.073907, 280.17188)"><g><path d="M 6.734375 -14.96875 C 7.785156 -14.96875 8.71875 -14.75 9.53125 -14.3125 C 10.34375 -13.882812 10.976562 -13.289062 11.4375 -12.53125 C 11.90625 -11.78125 12.140625 -10.921875 12.140625 -9.953125 C 12.140625 -9.304688 12.023438 -8.65625 11.796875 -8 C 11.578125 -7.351562 11.257812 -6.722656 10.84375 -6.109375 L 6.703125 0 L 4.625 0 L 8.078125 -5.140625 C 7.578125 -4.972656 7.035156 -4.890625 6.453125 -4.890625 C 5.484375 -4.890625 4.613281 -5.109375 3.84375 -5.546875 C 3.082031 -5.992188 2.476562 -6.597656 2.03125 -7.359375 C 1.582031 -8.117188 1.359375 -8.976562 1.359375 -9.9375 C 1.359375 -10.914062 1.585938 -11.78125 2.046875 -12.53125 C 2.515625 -13.289062 3.148438 -13.882812 3.953125 -14.3125 C 4.765625 -14.75 5.691406 -14.96875 6.734375 -14.96875 Z M 3.125 -9.9375 C 3.125 -9.28125 3.273438 -8.691406 3.578125 -8.171875 C 3.890625 -7.648438 4.316406 -7.242188 4.859375 -6.953125 C 5.410156 -6.660156 6.035156 -6.515625 6.734375 -6.515625 C 7.453125 -6.515625 8.078125 -6.660156 8.609375 -6.953125 C 9.148438 -7.242188 9.578125 -7.648438 9.890625 -8.171875 C 10.203125 -8.691406 10.359375 -9.28125 10.359375 -9.9375 C 10.359375 -10.601562 10.203125 -11.191406 9.890625 -11.703125 C 9.578125 -12.210938 9.148438 -12.613281 8.609375 -12.90625 C 8.078125 -13.207031 7.453125 -13.359375 6.734375 -13.359375 C 6.035156 -13.359375 5.410156 -13.207031 4.859375 -12.90625 C 4.316406 -12.613281 3.890625 -12.210938 3.578125 -11.703125 C 3.273438 -11.191406 3.125 -10.601562 3.125 -9.9375 Z M 3.125 -9.9375 "/></g></g></g><g fill="#737373" fill-opacity="1"><g transform="translate(870.80545, 280.17188)"><g><path d="M 4.15625 0 L 4.15625 -10.609375 L 0.78125 -10.609375 L 0.78125 -12.328125 L 2.390625 -12.328125 C 3.035156 -12.328125 3.488281 -12.414062 3.75 -12.59375 C 4.019531 -12.78125 4.210938 -13.125 4.328125 -13.625 L 4.5625 -14.703125 L 6 -14.703125 L 6 0 Z M 4.15625 0 "/></g></g></g><g fill="#737373" fill-opacity="1"><g transform="translate(878.948906, 280.17188)"><g><path d="M 7.34375 0.265625 C 6.125 0.265625 5.070312 -0.0390625 4.1875 -0.65625 C 3.300781 -1.269531 2.613281 -2.144531 2.125 -3.28125 C 1.644531 -4.425781 1.40625 -5.78125 1.40625 -7.34375 C 1.40625 -8.914062 1.644531 -10.269531 2.125 -11.40625 C 2.613281 -12.550781 3.300781 -13.429688 4.1875 -14.046875 C 5.070312 -14.660156 6.125 -14.96875 7.34375 -14.96875 C 8.582031 -14.96875 9.640625 -14.660156 10.515625 -14.046875 C 11.398438 -13.429688 12.078125 -12.550781 12.546875 -11.40625 C 13.023438 -10.269531 13.265625 -8.914062 13.265625 -7.34375 C 13.265625 -5.78125 13.023438 -4.425781 12.546875 -3.28125 C 12.078125 -2.144531 11.398438 -1.269531 10.515625 -0.65625 C 9.640625 -0.0390625 8.582031 0.265625 7.34375 0.265625 Z M 3.234375 -7.34375 C 3.234375 -5.539062 3.597656 -4.117188 4.328125 -3.078125 C 5.066406 -2.035156 6.070312 -1.515625 7.34375 -1.515625 C 8.625 -1.515625 9.625 -2.035156 10.34375 -3.078125 C 11.070312 -4.117188 11.4375 -5.539062 11.4375 -7.34375 C 11.4375 -9.15625 11.070312 -10.582031 10.34375 -11.625 C 9.625 -12.664062 8.625 -13.1875 7.34375 -13.1875 C 6.070312 -13.1875 5.066406 -12.664062 4.328125 -11.625 C 3.597656 -10.582031 3.234375 -9.15625 3.234375 -7.34375 Z M 3.234375 -7.34375 "/></g></g></g><g fill="#737373" fill-opacity="1"><g transform="translate(1049.536825, 280.17188)"><g><path d="M 4.15625 0 L 4.15625 -10.609375 L 0.78125 -10.609375 L 0.78125 -12.328125 L 2.390625 -12.328125 C 3.035156 -12.328125 3.488281 -12.414062 3.75 -12.59375 C 4.019531 -12.78125 4.210938 -13.125 4.328125 -13.625 L 4.5625 -14.703125 L 6 -14.703125 L 6 0 Z M 4.15625 0 "/></g></g></g><g fill="#737373" fill-opacity="1"><g transform="translate(1057.680281, 280.17188)"><g><path d="M 4.15625 0 L 4.15625 -10.609375 L 0.78125 -10.609375 L 0.78125 -12.328125 L 2.390625 -12.328125 C 3.035156 -12.328125 3.488281 -12.414062 3.75 -12.59375 C 4.019531 -12.78125 4.210938 -13.125 4.328125 -13.625 L 4.5625 -14.703125 L 6 -14.703125 L 6 0 Z M 4.15625 0 "/></g></g></g><g fill="#737373" fill-opacity="1"><g transform="translate(1228.268392, 280.17188)"><g><path d="M 4.15625 0 L 4.15625 -10.609375 L 0.78125 -10.609375 L 0.78125 -12.328125 L 2.390625 -12.328125 C 3.035156 -12.328125 3.488281 -12.414062 3.75 -12.59375 C 4.019531 -12.78125 4.210938 -13.125 4.328125 -13.625 L 4.5625 -14.703125 L 6 -14.703125 L 6 0 Z M 4.15625 0 "/></g></g></g><g fill="#737373" fill-opacity="1"><g transform="translate(1236.411848, 280.17188)"><g><path d="M 1.515625 0 L 1.515625 -1.390625 L 7.609375 -6.96875 C 8.304688 -7.625 8.820312 -8.234375 9.15625 -8.796875 C 9.488281 -9.367188 9.65625 -9.957031 9.65625 -10.5625 C 9.65625 -11.40625 9.367188 -12.082031 8.796875 -12.59375 C 8.234375 -13.101562 7.5 -13.359375 6.59375 -13.359375 C 5.65625 -13.359375 4.894531 -13.070312 4.3125 -12.5 C 3.726562 -11.9375 3.425781 -11.144531 3.40625 -10.125 L 1.6875 -10.125 C 1.707031 -11.101562 1.925781 -11.957031 2.34375 -12.6875 C 2.757812 -13.414062 3.328125 -13.976562 4.046875 -14.375 C 4.765625 -14.769531 5.609375 -14.96875 6.578125 -14.96875 C 7.515625 -14.96875 8.347656 -14.78125 9.078125 -14.40625 C 9.816406 -14.03125 10.394531 -13.507812 10.8125 -12.84375 C 11.226562 -12.1875 11.4375 -11.425781 11.4375 -10.5625 C 11.4375 -9.738281 11.21875 -8.910156 10.78125 -8.078125 C 10.351562 -7.253906 9.6875 -6.425781 8.78125 -5.59375 L 4.53125 -1.71875 L 11.734375 -1.71875 L 11.734375 0 Z M 1.515625 0 "/></g></g></g><g fill="#737373" fill-opacity="1"><g transform="translate(155.879442, 409.240694)"><g><path d="M 4.15625 0 L 4.15625 -10.609375 L 0.78125 -10.609375 L 0.78125 -12.328125 L 2.390625 -12.328125 C 3.035156 -12.328125 3.488281 -12.414062 3.75 -12.59375 C 4.019531 -12.78125 4.210938 -13.125 4.328125 -13.625 L 4.5625 -14.703125 L 6 -14.703125 L 6 0 Z M 4.15625 0 "/></g></g></g><g fill="#737373" fill-opacity="1"><g transform="translate(164.022897, 409.240694)"><g><path d="M 6.265625 0.265625 C 5.296875 0.265625 4.4375 0.0820312 3.6875 -0.28125 C 2.945312 -0.65625 2.367188 -1.179688 1.953125 -1.859375 C 1.535156 -2.535156 1.304688 -3.328125 1.265625 -4.234375 L 3.0625 -4.234375 C 3.125 -3.410156 3.441406 -2.75 4.015625 -2.25 C 4.597656 -1.757812 5.347656 -1.515625 6.265625 -1.515625 C 7.222656 -1.515625 7.988281 -1.78125 8.5625 -2.3125 C 9.132812 -2.851562 9.421875 -3.566406 9.421875 -4.453125 C 9.421875 -5.335938 9.132812 -6.039062 8.5625 -6.5625 C 7.988281 -7.082031 7.226562 -7.34375 6.28125 -7.34375 L 3.890625 -7.34375 L 3.890625 -8.671875 L 8.015625 -12.984375 L 1.515625 -12.984375 L 1.515625 -14.703125 L 10.765625 -14.703125 L 10.765625 -13.359375 L 6.609375 -9.03125 C 7.546875 -8.988281 8.363281 -8.765625 9.0625 -8.359375 C 9.769531 -7.960938 10.316406 -7.425781 10.703125 -6.75 C 11.085938 -6.070312 11.28125 -5.285156 11.28125 -4.390625 C 11.28125 -3.460938 11.066406 -2.648438 10.640625 -1.953125 C 10.222656 -1.253906 9.640625 -0.707031 8.890625 -0.3125 C 8.140625 0.0703125 7.265625 0.265625 6.265625 0.265625 Z M 6.265625 0.265625 "/></g></g></g><g fill="#737373" fill-opacity="1"><g transform="translate(334.610937, 409.240694)"><g><path d="M 4.15625 0 L 4.15625 -10.609375 L 0.78125 -10.609375 L 0.78125 -12.328125 L 2.390625 -12.328125 C 3.035156 -12.328125 3.488281 -12.414062 3.75 -12.59375 C 4.019531 -12.78125 4.210938 -13.125 4.328125 -13.625 L 4.5625 -14.703125 L 6 -14.703125 L 6 0 Z M 4.15625 0 "/></g></g></g><g fill="#737373" fill-opacity="1"><g transform="translate(342.754392, 409.240694)"><g><path d="M 0.75 -3.109375 L 0.75 -4.515625 L 6.0625 -14.703125 L 8.171875 -14.703125 L 3 -4.828125 L 8.28125 -4.828125 L 8.40625 -9.484375 L 10.09375 -9.484375 L 10.09375 -4.875 L 12.078125 -4.875 L 12.078125 -3.109375 L 10.09375 -3.109375 L 10.09375 0 L 8.25 0 L 8.25 -3.109375 Z M 0.75 -3.109375 "/></g></g></g><g fill="#737373" fill-opacity="1"><g transform="translate(513.34246, 409.240694)"><g><path d="M 4.15625 0 L 4.15625 -10.609375 L 0.78125 -10.609375 L 0.78125 -12.328125 L 2.390625 -12.328125 C 3.035156 -12.328125 3.488281 -12.414062 3.75 -12.59375 C 4.019531 -12.78125 4.210938 -13.125 4.328125 -13.625 L 4.5625 -14.703125 L 6 -14.703125 L 6 0 Z M 4.15625 0 "/></g></g></g><g fill="#737373" fill-opacity="1"><g transform="translate(521.485916, 409.240694)"><g><path d="M 6.359375 0.265625 C 5.390625 0.265625 4.535156 0.0820312 3.796875 -0.28125 C 3.066406 -0.65625 2.492188 -1.179688 2.078125 -1.859375 C 1.660156 -2.535156 1.429688 -3.328125 1.390625 -4.234375 L 3.1875 -4.234375 C 3.25 -3.398438 3.566406 -2.738281 4.140625 -2.25 C 4.722656 -1.757812 5.472656 -1.515625 6.390625 -1.515625 C 7.347656 -1.515625 8.113281 -1.78125 8.6875 -2.3125 C 9.269531 -2.851562 9.5625 -3.566406 9.5625 -4.453125 C 9.5625 -5.347656 9.269531 -6.054688 8.6875 -6.578125 C 8.101562 -7.109375 7.335938 -7.375 6.390625 -7.375 L 1.765625 -7.375 L 2.328125 -14.703125 L 10.734375 -14.703125 L 10.734375 -12.984375 L 4.015625 -12.984375 L 3.703125 -9.078125 L 6.390625 -9.078125 C 7.390625 -9.078125 8.265625 -8.878906 9.015625 -8.484375 C 9.765625 -8.085938 10.347656 -7.539062 10.765625 -6.84375 C 11.191406 -6.144531 11.40625 -5.332031 11.40625 -4.40625 C 11.40625 -3.488281 11.191406 -2.675781 10.765625 -1.96875 C 10.347656 -1.257812 9.757812 -0.707031 9 -0.3125 C 8.25 0.0703125 7.367188 0.265625 6.359375 0.265625 Z M 6.359375 0.265625 "/></g></g></g><g fill="#737373" fill-opacity="1"><g transform="translate(692.073907, 409.240694)"><g><path d="M 4.15625 0 L 4.15625 -10.609375 L 0.78125 -10.609375 L 0.78125 -12.328125 L 2.390625 -12.328125 C 3.035156 -12.328125 3.488281 -12.414062 3.75 -12.59375 C 4.019531 -12.78125 4.210938 -13.125 4.328125 -13.625 L 4.5625 -14.703125 L 6 -14.703125 L 6 0 Z M 4.15625 0 "/></g></g></g><g fill="#737373" fill-opacity="1"><g transform="translate(700.217363, 409.240694)"><g><path d="M 6.65625 0.265625 C 5.601562 0.265625 4.671875 0.0507812 3.859375 -0.375 C 3.046875 -0.8125 2.410156 -1.40625 1.953125 -2.15625 C 1.492188 -2.914062 1.265625 -3.78125 1.265625 -4.75 C 1.265625 -5.40625 1.375 -6.054688 1.59375 -6.703125 C 1.820312 -7.347656 2.144531 -7.976562 2.5625 -8.59375 L 6.703125 -14.703125 L 8.78125 -14.703125 L 5.3125 -9.5625 C 5.8125 -9.726562 6.359375 -9.8125 6.953125 -9.8125 C 7.921875 -9.8125 8.785156 -9.585938 9.546875 -9.140625 C 10.316406 -8.703125 10.921875 -8.101562 11.359375 -7.34375 C 11.804688 -6.59375 12.03125 -5.734375 12.03125 -4.765625 C 12.03125 -3.796875 11.796875 -2.929688 11.328125 -2.171875 C 10.867188 -1.410156 10.238281 -0.8125 9.4375 -0.375 C 8.632812 0.0507812 7.707031 0.265625 6.65625 0.265625 Z M 3.046875 -4.765625 C 3.046875 -4.109375 3.195312 -3.519531 3.5 -3 C 3.8125 -2.476562 4.238281 -2.070312 4.78125 -1.78125 C 5.332031 -1.488281 5.957031 -1.34375 6.65625 -1.34375 C 7.351562 -1.34375 7.972656 -1.488281 8.515625 -1.78125 C 9.066406 -2.070312 9.492188 -2.476562 9.796875 -3 C 10.109375 -3.519531 10.265625 -4.109375 10.265625 -4.765625 C 10.265625 -5.441406 10.109375 -6.035156 9.796875 -6.546875 C 9.492188 -7.054688 9.066406 -7.457031 8.515625 -7.75 C 7.972656 -8.039062 7.351562 -8.1875 6.65625 -8.1875 C 5.957031 -8.1875 5.332031 -8.039062 4.78125 -7.75 C 4.238281 -7.457031 3.8125 -7.054688 3.5 -6.546875 C 3.195312 -6.035156 3.046875 -5.441406 3.046875 -4.765625 Z M 3.046875 -4.765625 "/></g></g></g><g fill="#737373" fill-opacity="1"><g transform="translate(870.80545, 409.240694)"><g><path d="M 4.15625 0 L 4.15625 -10.609375 L 0.78125 -10.609375 L 0.78125 -12.328125 L 2.390625 -12.328125 C 3.035156 -12.328125 3.488281 -12.414062 3.75 -12.59375 C 4.019531 -12.78125 4.210938 -13.125 4.328125 -13.625 L 4.5625 -14.703125 L 6 -14.703125 L 6 0 Z M 4.15625 0 "/></g></g></g><g fill="#737373" fill-opacity="1"><g transform="translate(878.948906, 409.240694)"><g><path d="M 2.796875 0 L 8.3125 -12.984375 L 0.875 -12.984375 L 0.875 -14.703125 L 10.484375 -14.703125 L 10.484375 -13.375 L 4.765625 0 Z M 2.796875 0 "/></g></g></g><g fill="#737373" fill-opacity="1"><g transform="translate(1049.536825, 409.240694)"><g><path d="M 4.15625 0 L 4.15625 -10.609375 L 0.78125 -10.609375 L 0.78125 -12.328125 L 2.390625 -12.328125 C 3.035156 -12.328125 3.488281 -12.414062 3.75 -12.59375 C 4.019531 -12.78125 4.210938 -13.125 4.328125 -13.625 L 4.5625 -14.703125 L 6 -14.703125 L 6 0 Z M 4.15625 0 "/></g></g></g><g fill="#737373" fill-opacity="1"><g transform="translate(1057.680281, 409.240694)"><g><path d="M 6.46875 0.265625 C 5.414062 0.265625 4.492188 0.0859375 3.703125 -0.265625 C 2.910156 -0.617188 2.289062 -1.109375 1.84375 -1.734375 C 1.394531 -2.367188 1.171875 -3.097656 1.171875 -3.921875 C 1.171875 -4.722656 1.382812 -5.441406 1.8125 -6.078125 C 2.238281 -6.710938 2.835938 -7.207031 3.609375 -7.5625 C 2.953125 -7.90625 2.4375 -8.367188 2.0625 -8.953125 C 1.695312 -9.535156 1.515625 -10.195312 1.515625 -10.9375 C 1.515625 -11.738281 1.71875 -12.441406 2.125 -13.046875 C 2.539062 -13.660156 3.125 -14.132812 3.875 -14.46875 C 4.625 -14.800781 5.488281 -14.96875 6.46875 -14.96875 C 7.445312 -14.96875 8.304688 -14.800781 9.046875 -14.46875 C 9.785156 -14.132812 10.363281 -13.660156 10.78125 -13.046875 C 11.207031 -12.441406 11.421875 -11.738281 11.421875 -10.9375 C 11.421875 -10.195312 11.234375 -9.535156 10.859375 -8.953125 C 10.492188 -8.367188 9.984375 -7.90625 9.328125 -7.5625 C 10.078125 -7.207031 10.671875 -6.710938 11.109375 -6.078125 C 11.546875 -5.441406 11.765625 -4.722656 11.765625 -3.921875 C 11.765625 -3.097656 11.539062 -2.367188 11.09375 -1.734375 C 10.644531 -1.109375 10.023438 -0.617188 9.234375 -0.265625 C 8.441406 0.0859375 7.519531 0.265625 6.46875 0.265625 Z M 2.9375 -4.03125 C 2.9375 -3.21875 3.257812 -2.566406 3.90625 -2.078125 C 4.550781 -1.585938 5.40625 -1.34375 6.46875 -1.34375 C 7.519531 -1.34375 8.367188 -1.585938 9.015625 -2.078125 C 9.671875 -2.566406 10 -3.21875 10 -4.03125 C 10 -4.84375 9.671875 -5.488281 9.015625 -5.96875 C 8.367188 -6.457031 7.519531 -6.703125 6.46875 -6.703125 C 5.40625 -6.703125 4.550781 -6.457031 3.90625 -5.96875 C 3.257812 -5.488281 2.9375 -4.84375 2.9375 -4.03125 Z M 3.28125 -10.84375 C 3.28125 -10.082031 3.570312 -9.46875 4.15625 -9 C 4.75 -8.539062 5.519531 -8.3125 6.46875 -8.3125 C 7.414062 -8.3125 8.179688 -8.539062 8.765625 -9 C 9.359375 -9.46875 9.65625 -10.082031 9.65625 -10.84375 C 9.65625 -11.59375 9.359375 -12.203125 8.765625 -12.671875 C 8.179688 -13.140625 7.414062 -13.375 6.46875 -13.375 C 5.519531 -13.375 4.75 -13.140625 4.15625 -12.671875 C 3.570312 -12.203125 3.28125 -11.59375 3.28125 -10.84375 Z M 3.28125 -10.84375 "/></g></g></g><g fill="#737373" fill-opacity="1"><g transform="translate(1228.268392, 409.240694)"><g><path d="M 4.15625 0 L 4.15625 -10.609375 L 0.78125 -10.609375 L 0.78125 -12.328125 L 2.390625 -12.328125 C 3.035156 -12.328125 3.488281 -12.414062 3.75 -12.59375 C 4.019531 -12.78125 4.210938 -13.125 4.328125 -13.625 L 4.5625 -14.703125 L 6 -14.703125 L 6 0 Z M 4.15625 0 "/></g></g></g><g fill="#737373" fill-opacity="1"><g transform="translate(1236.411848, 409.240694)"><g><path d="M 6.734375 -14.96875 C 7.785156 -14.96875 8.71875 -14.75 9.53125 -14.3125 C 10.34375 -13.882812 10.976562 -13.289062 11.4375 -12.53125 C 11.90625 -11.78125 12.140625 -10.921875 12.140625 -9.953125 C 12.140625 -9.304688 12.023438 -8.65625 11.796875 -8 C 11.578125 -7.351562 11.257812 -6.722656 10.84375 -6.109375 L 6.703125 0 L 4.625 0 L 8.078125 -5.140625 C 7.578125 -4.972656 7.035156 -4.890625 6.453125 -4.890625 C 5.484375 -4.890625 4.613281 -5.109375 3.84375 -5.546875 C 3.082031 -5.992188 2.476562 -6.597656 2.03125 -7.359375 C 1.582031 -8.117188 1.359375 -8.976562 1.359375 -9.9375 C 1.359375 -10.914062 1.585938 -11.78125 2.046875 -12.53125 C 2.515625 -13.289062 3.148438 -13.882812 3.953125 -14.3125 C 4.765625 -14.75 5.691406 -14.96875 6.734375 -14.96875 Z M 3.125 -9.9375 C 3.125 -9.28125 3.273438 -8.691406 3.578125 -8.171875 C 3.890625 -7.648438 4.316406 -7.242188 4.859375 -6.953125 C 5.410156 -6.660156 6.035156 -6.515625 6.734375 -6.515625 C 7.453125 -6.515625 8.078125 -6.660156 8.609375 -6.953125 C 9.148438 -7.242188 9.578125 -7.648438 9.890625 -8.171875 C 10.203125 -8.691406 10.359375 -9.28125 10.359375 -9.9375 C 10.359375 -10.601562 10.203125 -11.191406 9.890625 -11.703125 C 9.578125 -12.210938 9.148438 -12.613281 8.609375 -12.90625 C 8.078125 -13.207031 7.453125 -13.359375 6.734375 -13.359375 C 6.035156 -13.359375 5.410156 -13.207031 4.859375 -12.90625 C 4.316406 -12.613281 3.890625 -12.210938 3.578125 -11.703125 C 3.273438 -11.191406 3.125 -10.601562 3.125 -9.9375 Z M 3.125 -9.9375 "/></g></g></g><g fill="#737373" fill-opacity="1"><g transform="translate(155.879442, 538.309457)"><g><path d="M 1.515625 0 L 1.515625 -1.390625 L 7.609375 -6.96875 C 8.304688 -7.625 8.820312 -8.234375 9.15625 -8.796875 C 9.488281 -9.367188 9.65625 -9.957031 9.65625 -10.5625 C 9.65625 -11.40625 9.367188 -12.082031 8.796875 -12.59375 C 8.234375 -13.101562 7.5 -13.359375 6.59375 -13.359375 C 5.65625 -13.359375 4.894531 -13.070312 4.3125 -12.5 C 3.726562 -11.9375 3.425781 -11.144531 3.40625 -10.125 L 1.6875 -10.125 C 1.707031 -11.101562 1.925781 -11.957031 2.34375 -12.6875 C 2.757812 -13.414062 3.328125 -13.976562 4.046875 -14.375 C 4.765625 -14.769531 5.609375 -14.96875 6.578125 -14.96875 C 7.515625 -14.96875 8.347656 -14.78125 9.078125 -14.40625 C 9.816406 -14.03125 10.394531 -13.507812 10.8125 -12.84375 C 11.226562 -12.1875 11.4375 -11.425781 11.4375 -10.5625 C 11.4375 -9.738281 11.21875 -8.910156 10.78125 -8.078125 C 10.351562 -7.253906 9.6875 -6.425781 8.78125 -5.59375 L 4.53125 -1.71875 L 11.734375 -1.71875 L 11.734375 0 Z M 1.515625 0 "/></g></g></g><g fill="#737373" fill-opacity="1"><g transform="translate(169.332932, 538.309457)"><g><path d="M 7.34375 0.265625 C 6.125 0.265625 5.070312 -0.0390625 4.1875 -0.65625 C 3.300781 -1.269531 2.613281 -2.144531 2.125 -3.28125 C 1.644531 -4.425781 1.40625 -5.78125 1.40625 -7.34375 C 1.40625 -8.914062 1.644531 -10.269531 2.125 -11.40625 C 2.613281 -12.550781 3.300781 -13.429688 4.1875 -14.046875 C 5.070312 -14.660156 6.125 -14.96875 7.34375 -14.96875 C 8.582031 -14.96875 9.640625 -14.660156 10.515625 -14.046875 C 11.398438 -13.429688 12.078125 -12.550781 12.546875 -11.40625 C 13.023438 -10.269531 13.265625 -8.914062 13.265625 -7.34375 C 13.265625 -5.78125 13.023438 -4.425781 12.546875 -3.28125 C 12.078125 -2.144531 11.398438 -1.269531 10.515625 -0.65625 C 9.640625 -0.0390625 8.582031 0.265625 7.34375 0.265625 Z M 3.234375 -7.34375 C 3.234375 -5.539062 3.597656 -4.117188 4.328125 -3.078125 C 5.066406 -2.035156 6.070312 -1.515625 7.34375 -1.515625 C 8.625 -1.515625 9.625 -2.035156 10.34375 -3.078125 C 11.070312 -4.117188 11.4375 -5.539062 11.4375 -7.34375 C 11.4375 -9.15625 11.070312 -10.582031 10.34375 -11.625 C 9.625 -12.664062 8.625 -13.1875 7.34375 -13.1875 C 6.070312 -13.1875 5.066406 -12.664062 4.328125 -11.625 C 3.597656 -10.582031 3.234375 -9.15625 3.234375 -7.34375 Z M 3.234375 -7.34375 "/></g></g></g><g fill="#737373" fill-opacity="1"><g transform="translate(334.610937, 538.309457)"><g><path d="M 1.515625 0 L 1.515625 -1.390625 L 7.609375 -6.96875 C 8.304688 -7.625 8.820312 -8.234375 9.15625 -8.796875 C 9.488281 -9.367188 9.65625 -9.957031 9.65625 -10.5625 C 9.65625 -11.40625 9.367188 -12.082031 8.796875 -12.59375 C 8.234375 -13.101562 7.5 -13.359375 6.59375 -13.359375 C 5.65625 -13.359375 4.894531 -13.070312 4.3125 -12.5 C 3.726562 -11.9375 3.425781 -11.144531 3.40625 -10.125 L 1.6875 -10.125 C 1.707031 -11.101562 1.925781 -11.957031 2.34375 -12.6875 C 2.757812 -13.414062 3.328125 -13.976562 4.046875 -14.375 C 4.765625 -14.769531 5.609375 -14.96875 6.578125 -14.96875 C 7.515625 -14.96875 8.347656 -14.78125 9.078125 -14.40625 C 9.816406 -14.03125 10.394531 -13.507812 10.8125 -12.84375 C 11.226562 -12.1875 11.4375 -11.425781 11.4375 -10.5625 C 11.4375 -9.738281 11.21875 -8.910156 10.78125 -8.078125 C 10.351562 -7.253906 9.6875 -6.425781 8.78125 -5.59375 L 4.53125 -1.71875 L 11.734375 -1.71875 L 11.734375 0 Z M 1.515625 0 "/></g></g></g><g fill="#737373" fill-opacity="1"><g transform="translate(348.064427, 538.309457)"><g><path d="M 4.15625 0 L 4.15625 -10.609375 L 0.78125 -10.609375 L 0.78125 -12.328125 L 2.390625 -12.328125 C 3.035156 -12.328125 3.488281 -12.414062 3.75 -12.59375 C 4.019531 -12.78125 4.210938 -13.125 4.328125 -13.625 L 4.5625 -14.703125 L 6 -14.703125 L 6 0 Z M 4.15625 0 "/></g></g></g><g fill="#737373" fill-opacity="1"><g transform="translate(513.34246, 538.309457)"><g><path d="M 1.515625 0 L 1.515625 -1.390625 L 7.609375 -6.96875 C 8.304688 -7.625 8.820312 -8.234375 9.15625 -8.796875 C 9.488281 -9.367188 9.65625 -9.957031 9.65625 -10.5625 C 9.65625 -11.40625 9.367188 -12.082031 8.796875 -12.59375 C 8.234375 -13.101562 7.5 -13.359375 6.59375 -13.359375 C 5.65625 -13.359375 4.894531 -13.070312 4.3125 -12.5 C 3.726562 -11.9375 3.425781 -11.144531 3.40625 -10.125 L 1.6875 -10.125 C 1.707031 -11.101562 1.925781 -11.957031 2.34375 -12.6875 C 2.757812 -13.414062 3.328125 -13.976562 4.046875 -14.375 C 4.765625 -14.769531 5.609375 -14.96875 6.578125 -14.96875 C 7.515625 -14.96875 8.347656 -14.78125 9.078125 -14.40625 C 9.816406 -14.03125 10.394531 -13.507812 10.8125 -12.84375 C 11.226562 -12.1875 11.4375 -11.425781 11.4375 -10.5625 C 11.4375 -9.738281 11.21875 -8.910156 10.78125 -8.078125 C 10.351562 -7.253906 9.6875 -6.425781 8.78125 -5.59375 L 4.53125 -1.71875 L 11.734375 -1.71875 L 11.734375 0 Z M 1.515625 0 "/></g></g></g><g fill="#737373" fill-opacity="1"><g transform="translate(526.795951, 538.309457)"><g><path d="M 1.515625 0 L 1.515625 -1.390625 L 7.609375 -6.96875 C 8.304688 -7.625 8.820312 -8.234375 9.15625 -8.796875 C 9.488281 -9.367188 9.65625 -9.957031 9.65625 -10.5625 C 9.65625 -11.40625 9.367188 -12.082031 8.796875 -12.59375 C 8.234375 -13.101562 7.5 -13.359375 6.59375 -13.359375 C 5.65625 -13.359375 4.894531 -13.070312 4.3125 -12.5 C 3.726562 -11.9375 3.425781 -11.144531 3.40625 -10.125 L 1.6875 -10.125 C 1.707031 -11.101562 1.925781 -11.957031 2.34375 -12.6875 C 2.757812 -13.414062 3.328125 -13.976562 4.046875 -14.375 C 4.765625 -14.769531 5.609375 -14.96875 6.578125 -14.96875 C 7.515625 -14.96875 8.347656 -14.78125 9.078125 -14.40625 C 9.816406 -14.03125 10.394531 -13.507812 10.8125 -12.84375 C 11.226562 -12.1875 11.4375 -11.425781 11.4375 -10.5625 C 11.4375 -9.738281 11.21875 -8.910156 10.78125 -8.078125 C 10.351562 -7.253906 9.6875 -6.425781 8.78125 -5.59375 L 4.53125 -1.71875 L 11.734375 -1.71875 L 11.734375 0 Z M 1.515625 0 "/></g></g></g><g fill="#737373" fill-opacity="1"><g transform="translate(692.073907, 538.309457)"><g><path d="M 1.515625 0 L 1.515625 -1.390625 L 7.609375 -6.96875 C 8.304688 -7.625 8.820312 -8.234375 9.15625 -8.796875 C 9.488281 -9.367188 9.65625 -9.957031 9.65625 -10.5625 C 9.65625 -11.40625 9.367188 -12.082031 8.796875 -12.59375 C 8.234375 -13.101562 7.5 -13.359375 6.59375 -13.359375 C 5.65625 -13.359375 4.894531 -13.070312 4.3125 -12.5 C 3.726562 -11.9375 3.425781 -11.144531 3.40625 -10.125 L 1.6875 -10.125 C 1.707031 -11.101562 1.925781 -11.957031 2.34375 -12.6875 C 2.757812 -13.414062 3.328125 -13.976562 4.046875 -14.375 C 4.765625 -14.769531 5.609375 -14.96875 6.578125 -14.96875 C 7.515625 -14.96875 8.347656 -14.78125 9.078125 -14.40625 C 9.816406 -14.03125 10.394531 -13.507812 10.8125 -12.84375 C 11.226562 -12.1875 11.4375 -11.425781 11.4375 -10.5625 C 11.4375 -9.738281 11.21875 -8.910156 10.78125 -8.078125 C 10.351562 -7.253906 9.6875 -6.425781 8.78125 -5.59375 L 4.53125 -1.71875 L 11.734375 -1.71875 L 11.734375 0 Z M 1.515625 0 "/></g></g></g><g fill="#737373" fill-opacity="1"><g transform="translate(705.527398, 538.309457)"><g><path d="M 6.265625 0.265625 C 5.296875 0.265625 4.4375 0.0820312 3.6875 -0.28125 C 2.945312 -0.65625 2.367188 -1.179688 1.953125 -1.859375 C 1.535156 -2.535156 1.304688 -3.328125 1.265625 -4.234375 L 3.0625 -4.234375 C 3.125 -3.410156 3.441406 -2.75 4.015625 -2.25 C 4.597656 -1.757812 5.347656 -1.515625 6.265625 -1.515625 C 7.222656 -1.515625 7.988281 -1.78125 8.5625 -2.3125 C 9.132812 -2.851562 9.421875 -3.566406 9.421875 -4.453125 C 9.421875 -5.335938 9.132812 -6.039062 8.5625 -6.5625 C 7.988281 -7.082031 7.226562 -7.34375 6.28125 -7.34375 L 3.890625 -7.34375 L 3.890625 -8.671875 L 8.015625 -12.984375 L 1.515625 -12.984375 L 1.515625 -14.703125 L 10.765625 -14.703125 L 10.765625 -13.359375 L 6.609375 -9.03125 C 7.546875 -8.988281 8.363281 -8.765625 9.0625 -8.359375 C 9.769531 -7.960938 10.316406 -7.425781 10.703125 -6.75 C 11.085938 -6.070312 11.28125 -5.285156 11.28125 -4.390625 C 11.28125 -3.460938 11.066406 -2.648438 10.640625 -1.953125 C 10.222656 -1.253906 9.640625 -0.707031 8.890625 -0.3125 C 8.140625 0.0703125 7.265625 0.265625 6.265625 0.265625 Z M 6.265625 0.265625 "/></g></g></g><g fill="#737373" fill-opacity="1"><g transform="translate(870.80545, 538.309457)"><g><path d="M 1.515625 0 L 1.515625 -1.390625 L 7.609375 -6.96875 C 8.304688 -7.625 8.820312 -8.234375 9.15625 -8.796875 C 9.488281 -9.367188 9.65625 -9.957031 9.65625 -10.5625 C 9.65625 -11.40625 9.367188 -12.082031 8.796875 -12.59375 C 8.234375 -13.101562 7.5 -13.359375 6.59375 -13.359375 C 5.65625 -13.359375 4.894531 -13.070312 4.3125 -12.5 C 3.726562 -11.9375 3.425781 -11.144531 3.40625 -10.125 L 1.6875 -10.125 C 1.707031 -11.101562 1.925781 -11.957031 2.34375 -12.6875 C 2.757812 -13.414062 3.328125 -13.976562 4.046875 -14.375 C 4.765625 -14.769531 5.609375 -14.96875 6.578125 -14.96875 C 7.515625 -14.96875 8.347656 -14.78125 9.078125 -14.40625 C 9.816406 -14.03125 10.394531 -13.507812 10.8125 -12.84375 C 11.226562 -12.1875 11.4375 -11.425781 11.4375 -10.5625 C 11.4375 -9.738281 11.21875 -8.910156 10.78125 -8.078125 C 10.351562 -7.253906 9.6875 -6.425781 8.78125 -5.59375 L 4.53125 -1.71875 L 11.734375 -1.71875 L 11.734375 0 Z M 1.515625 0 "/></g></g></g><g fill="#737373" fill-opacity="1"><g transform="translate(884.258941, 538.309457)"><g><path d="M 0.75 -3.109375 L 0.75 -4.515625 L 6.0625 -14.703125 L 8.171875 -14.703125 L 3 -4.828125 L 8.28125 -4.828125 L 8.40625 -9.484375 L 10.09375 -9.484375 L 10.09375 -4.875 L 12.078125 -4.875 L 12.078125 -3.109375 L 10.09375 -3.109375 L 10.09375 0 L 8.25 0 L 8.25 -3.109375 Z M 0.75 -3.109375 "/></g></g></g><g fill="#737373" fill-opacity="1"><g transform="translate(1049.536825, 538.309457)"><g><path d="M 1.515625 0 L 1.515625 -1.390625 L 7.609375 -6.96875 C 8.304688 -7.625 8.820312 -8.234375 9.15625 -8.796875 C 9.488281 -9.367188 9.65625 -9.957031 9.65625 -10.5625 C 9.65625 -11.40625 9.367188 -12.082031 8.796875 -12.59375 C 8.234375 -13.101562 7.5 -13.359375 6.59375 -13.359375 C 5.65625 -13.359375 4.894531 -13.070312 4.3125 -12.5 C 3.726562 -11.9375 3.425781 -11.144531 3.40625 -10.125 L 1.6875 -10.125 C 1.707031 -11.101562 1.925781 -11.957031 2.34375 -12.6875 C 2.757812 -13.414062 3.328125 -13.976562 4.046875 -14.375 C 4.765625 -14.769531 5.609375 -14.96875 6.578125 -14.96875 C 7.515625 -14.96875 8.347656 -14.78125 9.078125 -14.40625 C 9.816406 -14.03125 10.394531 -13.507812 10.8125 -12.84375 C 11.226562 -12.1875 11.4375 -11.425781 11.4375 -10.5625 C 11.4375 -9.738281 11.21875 -8.910156 10.78125 -8.078125 C 10.351562 -7.253906 9.6875 -6.425781 8.78125 -5.59375 L 4.53125 -1.71875 L 11.734375 -1.71875 L 11.734375 0 Z M 1.515625 0 "/></g></g></g><g fill="#737373" fill-opacity="1"><g transform="translate(1062.990316, 538.309457)"><g><path d="M 6.359375 0.265625 C 5.390625 0.265625 4.535156 0.0820312 3.796875 -0.28125 C 3.066406 -0.65625 2.492188 -1.179688 2.078125 -1.859375 C 1.660156 -2.535156 1.429688 -3.328125 1.390625 -4.234375 L 3.1875 -4.234375 C 3.25 -3.398438 3.566406 -2.738281 4.140625 -2.25 C 4.722656 -1.757812 5.472656 -1.515625 6.390625 -1.515625 C 7.347656 -1.515625 8.113281 -1.78125 8.6875 -2.3125 C 9.269531 -2.851562 9.5625 -3.566406 9.5625 -4.453125 C 9.5625 -5.347656 9.269531 -6.054688 8.6875 -6.578125 C 8.101562 -7.109375 7.335938 -7.375 6.390625 -7.375 L 1.765625 -7.375 L 2.328125 -14.703125 L 10.734375 -14.703125 L 10.734375 -12.984375 L 4.015625 -12.984375 L 3.703125 -9.078125 L 6.390625 -9.078125 C 7.390625 -9.078125 8.265625 -8.878906 9.015625 -8.484375 C 9.765625 -8.085938 10.347656 -7.539062 10.765625 -6.84375 C 11.191406 -6.144531 11.40625 -5.332031 11.40625 -4.40625 C 11.40625 -3.488281 11.191406 -2.675781 10.765625 -1.96875 C 10.347656 -1.257812 9.757812 -0.707031 9 -0.3125 C 8.25 0.0703125 7.367188 0.265625 6.359375 0.265625 Z M 6.359375 0.265625 "/></g></g></g><g fill="#737373" fill-opacity="1"><g transform="translate(1228.268392, 538.309457)"><g><path d="M 1.515625 0 L 1.515625 -1.390625 L 7.609375 -6.96875 C 8.304688 -7.625 8.820312 -8.234375 9.15625 -8.796875 C 9.488281 -9.367188 9.65625 -9.957031 9.65625 -10.5625 C 9.65625 -11.40625 9.367188 -12.082031 8.796875 -12.59375 C 8.234375 -13.101562 7.5 -13.359375 6.59375 -13.359375 C 5.65625 -13.359375 4.894531 -13.070312 4.3125 -12.5 C 3.726562 -11.9375 3.425781 -11.144531 3.40625 -10.125 L 1.6875 -10.125 C 1.707031 -11.101562 1.925781 -11.957031 2.34375 -12.6875 C 2.757812 -13.414062 3.328125 -13.976562 4.046875 -14.375 C 4.765625 -14.769531 5.609375 -14.96875 6.578125 -14.96875 C 7.515625 -14.96875 8.347656 -14.78125 9.078125 -14.40625 C 9.816406 -14.03125 10.394531 -13.507812 10.8125 -12.84375 C 11.226562 -12.1875 11.4375 -11.425781 11.4375 -10.5625 C 11.4375 -9.738281 11.21875 -8.910156 10.78125 -8.078125 C 10.351562 -7.253906 9.6875 -6.425781 8.78125 -5.59375 L 4.53125 -1.71875 L 11.734375 -1.71875 L 11.734375 0 Z M 1.515625 0 "/></g></g></g><g fill="#737373" fill-opacity="1"><g transform="translate(1241.721883, 538.309457)"><g><path d="M 6.65625 0.265625 C 5.601562 0.265625 4.671875 0.0507812 3.859375 -0.375 C 3.046875 -0.8125 2.410156 -1.40625 1.953125 -2.15625 C 1.492188 -2.914062 1.265625 -3.78125 1.265625 -4.75 C 1.265625 -5.40625 1.375 -6.054688 1.59375 -6.703125 C 1.820312 -7.347656 2.144531 -7.976562 2.5625 -8.59375 L 6.703125 -14.703125 L 8.78125 -14.703125 L 5.3125 -9.5625 C 5.8125 -9.726562 6.359375 -9.8125 6.953125 -9.8125 C 7.921875 -9.8125 8.785156 -9.585938 9.546875 -9.140625 C 10.316406 -8.703125 10.921875 -8.101562 11.359375 -7.34375 C 11.804688 -6.59375 12.03125 -5.734375 12.03125 -4.765625 C 12.03125 -3.796875 11.796875 -2.929688 11.328125 -2.171875 C 10.867188 -1.410156 10.238281 -0.8125 9.4375 -0.375 C 8.632812 0.0507812 7.707031 0.265625 6.65625 0.265625 Z M 3.046875 -4.765625 C 3.046875 -4.109375 3.195312 -3.519531 3.5 -3 C 3.8125 -2.476562 4.238281 -2.070312 4.78125 -1.78125 C 5.332031 -1.488281 5.957031 -1.34375 6.65625 -1.34375 C 7.351562 -1.34375 7.972656 -1.488281 8.515625 -1.78125 C 9.066406 -2.070312 9.492188 -2.476562 9.796875 -3 C 10.109375 -3.519531 10.265625 -4.109375 10.265625 -4.765625 C 10.265625 -5.441406 10.109375 -6.035156 9.796875 -6.546875 C 9.492188 -7.054688 9.066406 -7.457031 8.515625 -7.75 C 7.972656 -8.039062 7.351562 -8.1875 6.65625 -8.1875 C 5.957031 -8.1875 5.332031 -8.039062 4.78125 -7.75 C 4.238281 -7.457031 3.8125 -7.054688 3.5 -6.546875 C 3.195312 -6.035156 3.046875 -5.441406 3.046875 -4.765625 Z M 3.046875 -4.765625 "/></g></g></g><g fill="#737373" fill-opacity="1"><g transform="translate(155.879442, 667.378114)"><g><path d="M 1.515625 0 L 1.515625 -1.390625 L 7.609375 -6.96875 C 8.304688 -7.625 8.820312 -8.234375 9.15625 -8.796875 C 9.488281 -9.367188 9.65625 -9.957031 9.65625 -10.5625 C 9.65625 -11.40625 9.367188 -12.082031 8.796875 -12.59375 C 8.234375 -13.101562 7.5 -13.359375 6.59375 -13.359375 C 5.65625 -13.359375 4.894531 -13.070312 4.3125 -12.5 C 3.726562 -11.9375 3.425781 -11.144531 3.40625 -10.125 L 1.6875 -10.125 C 1.707031 -11.101562 1.925781 -11.957031 2.34375 -12.6875 C 2.757812 -13.414062 3.328125 -13.976562 4.046875 -14.375 C 4.765625 -14.769531 5.609375 -14.96875 6.578125 -14.96875 C 7.515625 -14.96875 8.347656 -14.78125 9.078125 -14.40625 C 9.816406 -14.03125 10.394531 -13.507812 10.8125 -12.84375 C 11.226562 -12.1875 11.4375 -11.425781 11.4375 -10.5625 C 11.4375 -9.738281 11.21875 -8.910156 10.78125 -8.078125 C 10.351562 -7.253906 9.6875 -6.425781 8.78125 -5.59375 L 4.53125 -1.71875 L 11.734375 -1.71875 L 11.734375 0 Z M 1.515625 0 "/></g></g></g><g fill="#737373" fill-opacity="1"><g transform="translate(169.332932, 667.378114)"><g><path d="M 2.796875 0 L 8.3125 -12.984375 L 0.875 -12.984375 L 0.875 -14.703125 L 10.484375 -14.703125 L 10.484375 -13.375 L 4.765625 0 Z M 2.796875 0 "/></g></g></g><g fill="#737373" fill-opacity="1"><g transform="translate(334.610937, 667.378114)"><g><path d="M 1.515625 0 L 1.515625 -1.390625 L 7.609375 -6.96875 C 8.304688 -7.625 8.820312 -8.234375 9.15625 -8.796875 C 9.488281 -9.367188 9.65625 -9.957031 9.65625 -10.5625 C 9.65625 -11.40625 9.367188 -12.082031 8.796875 -12.59375 C 8.234375 -13.101562 7.5 -13.359375 6.59375 -13.359375 C 5.65625 -13.359375 4.894531 -13.070312 4.3125 -12.5 C 3.726562 -11.9375 3.425781 -11.144531 3.40625 -10.125 L 1.6875 -10.125 C 1.707031 -11.101562 1.925781 -11.957031 2.34375 -12.6875 C 2.757812 -13.414062 3.328125 -13.976562 4.046875 -14.375 C 4.765625 -14.769531 5.609375 -14.96875 6.578125 -14.96875 C 7.515625 -14.96875 8.347656 -14.78125 9.078125 -14.40625 C 9.816406 -14.03125 10.394531 -13.507812 10.8125 -12.84375 C 11.226562 -12.1875 11.4375 -11.425781 11.4375 -10.5625 C 11.4375 -9.738281 11.21875 -8.910156 10.78125 -8.078125 C 10.351562 -7.253906 9.6875 -6.425781 8.78125 -5.59375 L 4.53125 -1.71875 L 11.734375 -1.71875 L 11.734375 0 Z M 1.515625 0 "/></g></g></g><g fill="#737373" fill-opacity="1"><g transform="translate(348.064427, 667.378114)"><g><path d="M 6.46875 0.265625 C 5.414062 0.265625 4.492188 0.0859375 3.703125 -0.265625 C 2.910156 -0.617188 2.289062 -1.109375 1.84375 -1.734375 C 1.394531 -2.367188 1.171875 -3.097656 1.171875 -3.921875 C 1.171875 -4.722656 1.382812 -5.441406 1.8125 -6.078125 C 2.238281 -6.710938 2.835938 -7.207031 3.609375 -7.5625 C 2.953125 -7.90625 2.4375 -8.367188 2.0625 -8.953125 C 1.695312 -9.535156 1.515625 -10.195312 1.515625 -10.9375 C 1.515625 -11.738281 1.71875 -12.441406 2.125 -13.046875 C 2.539062 -13.660156 3.125 -14.132812 3.875 -14.46875 C 4.625 -14.800781 5.488281 -14.96875 6.46875 -14.96875 C 7.445312 -14.96875 8.304688 -14.800781 9.046875 -14.46875 C 9.785156 -14.132812 10.363281 -13.660156 10.78125 -13.046875 C 11.207031 -12.441406 11.421875 -11.738281 11.421875 -10.9375 C 11.421875 -10.195312 11.234375 -9.535156 10.859375 -8.953125 C 10.492188 -8.367188 9.984375 -7.90625 9.328125 -7.5625 C 10.078125 -7.207031 10.671875 -6.710938 11.109375 -6.078125 C 11.546875 -5.441406 11.765625 -4.722656 11.765625 -3.921875 C 11.765625 -3.097656 11.539062 -2.367188 11.09375 -1.734375 C 10.644531 -1.109375 10.023438 -0.617188 9.234375 -0.265625 C 8.441406 0.0859375 7.519531 0.265625 6.46875 0.265625 Z M 2.9375 -4.03125 C 2.9375 -3.21875 3.257812 -2.566406 3.90625 -2.078125 C 4.550781 -1.585938 5.40625 -1.34375 6.46875 -1.34375 C 7.519531 -1.34375 8.367188 -1.585938 9.015625 -2.078125 C 9.671875 -2.566406 10 -3.21875 10 -4.03125 C 10 -4.84375 9.671875 -5.488281 9.015625 -5.96875 C 8.367188 -6.457031 7.519531 -6.703125 6.46875 -6.703125 C 5.40625 -6.703125 4.550781 -6.457031 3.90625 -5.96875 C 3.257812 -5.488281 2.9375 -4.84375 2.9375 -4.03125 Z M 3.28125 -10.84375 C 3.28125 -10.082031 3.570312 -9.46875 4.15625 -9 C 4.75 -8.539062 5.519531 -8.3125 6.46875 -8.3125 C 7.414062 -8.3125 8.179688 -8.539062 8.765625 -9 C 9.359375 -9.46875 9.65625 -10.082031 9.65625 -10.84375 C 9.65625 -11.59375 9.359375 -12.203125 8.765625 -12.671875 C 8.179688 -13.140625 7.414062 -13.375 6.46875 -13.375 C 5.519531 -13.375 4.75 -13.140625 4.15625 -12.671875 C 3.570312 -12.203125 3.28125 -11.59375 3.28125 -10.84375 Z M 3.28125 -10.84375 "/></g></g></g><g fill="#737373" fill-opacity="1"><g transform="translate(513.34246, 667.378114)"><g><path d="M 1.515625 0 L 1.515625 -1.390625 L 7.609375 -6.96875 C 8.304688 -7.625 8.820312 -8.234375 9.15625 -8.796875 C 9.488281 -9.367188 9.65625 -9.957031 9.65625 -10.5625 C 9.65625 -11.40625 9.367188 -12.082031 8.796875 -12.59375 C 8.234375 -13.101562 7.5 -13.359375 6.59375 -13.359375 C 5.65625 -13.359375 4.894531 -13.070312 4.3125 -12.5 C 3.726562 -11.9375 3.425781 -11.144531 3.40625 -10.125 L 1.6875 -10.125 C 1.707031 -11.101562 1.925781 -11.957031 2.34375 -12.6875 C 2.757812 -13.414062 3.328125 -13.976562 4.046875 -14.375 C 4.765625 -14.769531 5.609375 -14.96875 6.578125 -14.96875 C 7.515625 -14.96875 8.347656 -14.78125 9.078125 -14.40625 C 9.816406 -14.03125 10.394531 -13.507812 10.8125 -12.84375 C 11.226562 -12.1875 11.4375 -11.425781 11.4375 -10.5625 C 11.4375 -9.738281 11.21875 -8.910156 10.78125 -8.078125 C 10.351562 -7.253906 9.6875 -6.425781 8.78125 -5.59375 L 4.53125 -1.71875 L 11.734375 -1.71875 L 11.734375 0 Z M 1.515625 0 "/></g></g></g><g fill="#737373" fill-opacity="1"><g transform="translate(526.795951, 667.378114)"><g><path d="M 6.734375 -14.96875 C 7.785156 -14.96875 8.71875 -14.75 9.53125 -14.3125 C 10.34375 -13.882812 10.976562 -13.289062 11.4375 -12.53125 C 11.90625 -11.78125 12.140625 -10.921875 12.140625 -9.953125 C 12.140625 -9.304688 12.023438 -8.65625 11.796875 -8 C 11.578125 -7.351562 11.257812 -6.722656 10.84375 -6.109375 L 6.703125 0 L 4.625 0 L 8.078125 -5.140625 C 7.578125 -4.972656 7.035156 -4.890625 6.453125 -4.890625 C 5.484375 -4.890625 4.613281 -5.109375 3.84375 -5.546875 C 3.082031 -5.992188 2.476562 -6.597656 2.03125 -7.359375 C 1.582031 -8.117188 1.359375 -8.976562 1.359375 -9.9375 C 1.359375 -10.914062 1.585938 -11.78125 2.046875 -12.53125 C 2.515625 -13.289062 3.148438 -13.882812 3.953125 -14.3125 C 4.765625 -14.75 5.691406 -14.96875 6.734375 -14.96875 Z M 3.125 -9.9375 C 3.125 -9.28125 3.273438 -8.691406 3.578125 -8.171875 C 3.890625 -7.648438 4.316406 -7.242188 4.859375 -6.953125 C 5.410156 -6.660156 6.035156 -6.515625 6.734375 -6.515625 C 7.453125 -6.515625 8.078125 -6.660156 8.609375 -6.953125 C 9.148438 -7.242188 9.578125 -7.648438 9.890625 -8.171875 C 10.203125 -8.691406 10.359375 -9.28125 10.359375 -9.9375 C 10.359375 -10.601562 10.203125 -11.191406 9.890625 -11.703125 C 9.578125 -12.210938 9.148438 -12.613281 8.609375 -12.90625 C 8.078125 -13.207031 7.453125 -13.359375 6.734375 -13.359375 C 6.035156 -13.359375 5.410156 -13.207031 4.859375 -12.90625 C 4.316406 -12.613281 3.890625 -12.210938 3.578125 -11.703125 C 3.273438 -11.191406 3.125 -10.601562 3.125 -9.9375 Z M 3.125 -9.9375 "/></g></g></g><g fill="#737373" fill-opacity="1"><g transform="translate(692.073907, 667.378114)"><g><path d="M 6.265625 0.265625 C 5.296875 0.265625 4.4375 0.0820312 3.6875 -0.28125 C 2.945312 -0.65625 2.367188 -1.179688 1.953125 -1.859375 C 1.535156 -2.535156 1.304688 -3.328125 1.265625 -4.234375 L 3.0625 -4.234375 C 3.125 -3.410156 3.441406 -2.75 4.015625 -2.25 C 4.597656 -1.757812 5.347656 -1.515625 6.265625 -1.515625 C 7.222656 -1.515625 7.988281 -1.78125 8.5625 -2.3125 C 9.132812 -2.851562 9.421875 -3.566406 9.421875 -4.453125 C 9.421875 -5.335938 9.132812 -6.039062 8.5625 -6.5625 C 7.988281 -7.082031 7.226562 -7.34375 6.28125 -7.34375 L 3.890625 -7.34375 L 3.890625 -8.671875 L 8.015625 -12.984375 L 1.515625 -12.984375 L 1.515625 -14.703125 L 10.765625 -14.703125 L 10.765625 -13.359375 L 6.609375 -9.03125 C 7.546875 -8.988281 8.363281 -8.765625 9.0625 -8.359375 C 9.769531 -7.960938 10.316406 -7.425781 10.703125 -6.75 C 11.085938 -6.070312 11.28125 -5.285156 11.28125 -4.390625 C 11.28125 -3.460938 11.066406 -2.648438 10.640625 -1.953125 C 10.222656 -1.253906 9.640625 -0.707031 8.890625 -0.3125 C 8.140625 0.0703125 7.265625 0.265625 6.265625 0.265625 Z M 6.265625 0.265625 "/></g></g></g><g fill="#737373" fill-opacity="1"><g transform="translate(704.771825, 667.378114)"><g><path d="M 7.34375 0.265625 C 6.125 0.265625 5.070312 -0.0390625 4.1875 -0.65625 C 3.300781 -1.269531 2.613281 -2.144531 2.125 -3.28125 C 1.644531 -4.425781 1.40625 -5.78125 1.40625 -7.34375 C 1.40625 -8.914062 1.644531 -10.269531 2.125 -11.40625 C 2.613281 -12.550781 3.300781 -13.429688 4.1875 -14.046875 C 5.070312 -14.660156 6.125 -14.96875 7.34375 -14.96875 C 8.582031 -14.96875 9.640625 -14.660156 10.515625 -14.046875 C 11.398438 -13.429688 12.078125 -12.550781 12.546875 -11.40625 C 13.023438 -10.269531 13.265625 -8.914062 13.265625 -7.34375 C 13.265625 -5.78125 13.023438 -4.425781 12.546875 -3.28125 C 12.078125 -2.144531 11.398438 -1.269531 10.515625 -0.65625 C 9.640625 -0.0390625 8.582031 0.265625 7.34375 0.265625 Z M 3.234375 -7.34375 C 3.234375 -5.539062 3.597656 -4.117188 4.328125 -3.078125 C 5.066406 -2.035156 6.070312 -1.515625 7.34375 -1.515625 C 8.625 -1.515625 9.625 -2.035156 10.34375 -3.078125 C 11.070312 -4.117188 11.4375 -5.539062 11.4375 -7.34375 C 11.4375 -9.15625 11.070312 -10.582031 10.34375 -11.625 C 9.625 -12.664062 8.625 -13.1875 7.34375 -13.1875 C 6.070312 -13.1875 5.066406 -12.664062 4.328125 -11.625 C 3.597656 -10.582031 3.234375 -9.15625 3.234375 -7.34375 Z M 3.234375 -7.34375 "/></g></g></g><g fill="#737373" fill-opacity="1"><g transform="translate(870.80545, 667.378114)"><g><path d="M 6.265625 0.265625 C 5.296875 0.265625 4.4375 0.0820312 3.6875 -0.28125 C 2.945312 -0.65625 2.367188 -1.179688 1.953125 -1.859375 C 1.535156 -2.535156 1.304688 -3.328125 1.265625 -4.234375 L 3.0625 -4.234375 C 3.125 -3.410156 3.441406 -2.75 4.015625 -2.25 C 4.597656 -1.757812 5.347656 -1.515625 6.265625 -1.515625 C 7.222656 -1.515625 7.988281 -1.78125 8.5625 -2.3125 C 9.132812 -2.851562 9.421875 -3.566406 9.421875 -4.453125 C 9.421875 -5.335938 9.132812 -6.039062 8.5625 -6.5625 C 7.988281 -7.082031 7.226562 -7.34375 6.28125 -7.34375 L 3.890625 -7.34375 L 3.890625 -8.671875 L 8.015625 -12.984375 L 1.515625 -12.984375 L 1.515625 -14.703125 L 10.765625 -14.703125 L 10.765625 -13.359375 L 6.609375 -9.03125 C 7.546875 -8.988281 8.363281 -8.765625 9.0625 -8.359375 C 9.769531 -7.960938 10.316406 -7.425781 10.703125 -6.75 C 11.085938 -6.070312 11.28125 -5.285156 11.28125 -4.390625 C 11.28125 -3.460938 11.066406 -2.648438 10.640625 -1.953125 C 10.222656 -1.253906 9.640625 -0.707031 8.890625 -0.3125 C 8.140625 0.0703125 7.265625 0.265625 6.265625 0.265625 Z M 6.265625 0.265625 "/></g></g></g><g fill="#737373" fill-opacity="1"><g transform="translate(883.503368, 667.378114)"><g><path d="M 4.15625 0 L 4.15625 -10.609375 L 0.78125 -10.609375 L 0.78125 -12.328125 L 2.390625 -12.328125 C 3.035156 -12.328125 3.488281 -12.414062 3.75 -12.59375 C 4.019531 -12.78125 4.210938 -13.125 4.328125 -13.625 L 4.5625 -14.703125 L 6 -14.703125 L 6 0 Z M 4.15625 0 "/></g></g></g><g fill="#ffffff" fill-opacity="1"><g transform="translate(111.440357, 568.837842)"><g><path d="M -29.6875 -19.109375 C -31.59375 -20.460938 -33.035156 -21.21875 -34.015625 -21.375 C -34.992188 -21.539062 -35.484375 -21.625 -35.484375 -21.625 C -36.890625 -21.625 -38.066406 -21.132812 -39.015625 -20.15625 C -39.972656 -19.175781 -40.476562 -17.941406 -40.53125 -16.453125 C -40.625 -15.003906 -40.4375 -13.484375 -39.96875 -11.890625 C -39.5 -10.304688 -38.925781 -8.882812 -38.25 -7.625 C -37.570312 -6.363281 -37.003906 -5.457031 -36.546875 -4.90625 L -46.203125 -2.453125 C -47.597656 -4.359375 -48.726562 -6.703125 -49.59375 -9.484375 C -50.457031 -12.265625 -50.84375 -14.867188 -50.75 -17.296875 C -50.5625 -20.972656 -49.695312 -24.015625 -48.15625 -26.421875 C -46.613281 -28.828125 -44.617188 -30.539062 -42.171875 -31.5625 C -39.722656 -32.59375 -37.050781 -32.863281 -34.15625 -32.375 C -31.257812 -31.882812 -28.34375 -30.585938 -25.40625 -28.484375 L -10.15625 -18.625 L -10.15625 -33.453125 L 0 -33.453125 L 0 -0.421875 Z M -29.6875 -19.109375 "/></g></g></g><g fill="#ffffff" fill-opacity="1"><g transform="translate(111.440357, 525.369843)"><g><path d="M 0.703125 -20.796875 C 0.703125 -17.710938 0.0351562 -15.082031 -1.296875 -12.90625 C -2.628906 -10.738281 -4.484375 -8.96875 -6.859375 -7.59375 C -9.242188 -6.21875 -11.984375 -5.210938 -15.078125 -4.578125 C -18.179688 -3.953125 -21.507812 -3.640625 -25.0625 -3.640625 C -28.601562 -3.640625 -31.925781 -3.953125 -35.03125 -4.578125 C -38.132812 -5.210938 -40.863281 -6.21875 -43.21875 -7.59375 C -45.582031 -8.96875 -47.425781 -10.738281 -48.75 -12.90625 C -50.082031 -15.082031 -50.75 -17.710938 -50.75 -20.796875 C -50.75 -23.921875 -50.082031 -26.578125 -48.75 -28.765625 C -47.425781 -30.960938 -45.582031 -32.738281 -43.21875 -34.09375 C -40.863281 -35.445312 -38.132812 -36.4375 -35.03125 -37.0625 C -31.925781 -37.695312 -28.601562 -38.015625 -25.0625 -38.015625 C -21.507812 -38.015625 -18.179688 -37.695312 -15.078125 -37.0625 C -11.984375 -36.4375 -9.242188 -35.445312 -6.859375 -34.09375 C -4.484375 -32.738281 -2.628906 -30.960938 -1.296875 -28.765625 C 0.0351562 -26.578125 0.703125 -23.921875 0.703125 -20.796875 Z M -8.75 -20.796875 C -8.75 -22.703125 -9.484375 -24.203125 -10.953125 -25.296875 C -12.421875 -26.398438 -14.390625 -27.179688 -16.859375 -27.640625 C -19.335938 -28.109375 -22.070312 -28.34375 -25.0625 -28.34375 C -28.050781 -28.34375 -30.78125 -28.109375 -33.25 -27.640625 C -35.71875 -27.179688 -37.6875 -26.398438 -39.15625 -25.296875 C -40.632812 -24.203125 -41.375 -22.703125 -41.375 -20.796875 C -41.375 -18.972656 -40.632812 -17.507812 -39.15625 -16.40625 C -37.6875 -15.3125 -35.71875 -14.53125 -33.25 -14.0625 C -30.78125 -13.601562 -28.050781 -13.375 -25.0625 -13.375 C -22.070312 -13.375 -19.335938 -13.601562 -16.859375 -14.0625 C -14.390625 -14.53125 -12.421875 -15.3125 -10.953125 -16.40625 C -9.484375 -17.507812 -8.75 -18.972656 -8.75 -20.796875 Z M -8.75 -20.796875 "/></g></g></g><g fill="#ffffff" fill-opacity="1"><g transform="translate(111.440357, 476.582125)"><g><path d="M -29.6875 -19.109375 C -31.59375 -20.460938 -33.035156 -21.21875 -34.015625 -21.375 C -34.992188 -21.539062 -35.484375 -21.625 -35.484375 -21.625 C -36.890625 -21.625 -38.066406 -21.132812 -39.015625 -20.15625 C -39.972656 -19.175781 -40.476562 -17.941406 -40.53125 -16.453125 C -40.625 -15.003906 -40.4375 -13.484375 -39.96875 -11.890625 C -39.5 -10.304688 -38.925781 -8.882812 -38.25 -7.625 C -37.570312 -6.363281 -37.003906 -5.457031 -36.546875 -4.90625 L -46.203125 -2.453125 C -47.597656 -4.359375 -48.726562 -6.703125 -49.59375 -9.484375 C -50.457031 -12.265625 -50.84375 -14.867188 -50.75 -17.296875 C -50.5625 -20.972656 -49.695312 -24.015625 -48.15625 -26.421875 C -46.613281 -28.828125 -44.617188 -30.539062 -42.171875 -31.5625 C -39.722656 -32.59375 -37.050781 -32.863281 -34.15625 -32.375 C -31.257812 -31.882812 -28.34375 -30.585938 -25.40625 -28.484375 L -10.15625 -18.625 L -10.15625 -33.453125 L 0 -33.453125 L 0 -0.421875 Z M -29.6875 -19.109375 "/></g></g></g><g fill="#ffffff" fill-opacity="1"><g transform="translate(111.440357, 433.114125)"><g><path d="M -31.703125 -14.765625 C -31.335938 -18.960938 -30.554688 -22.472656 -29.359375 -25.296875 C -28.171875 -28.128906 -26.398438 -30.253906 -24.046875 -31.671875 C -21.691406 -33.097656 -18.578125 -33.8125 -14.703125 -33.8125 C -11.941406 -33.8125 -9.441406 -33.203125 -7.203125 -31.984375 C -4.960938 -30.773438 -3.175781 -29.050781 -1.84375 -26.8125 C -0.519531 -24.570312 0.234375 -21.890625 0.421875 -18.765625 C 0.460938 -17.921875 0.445312 -16.65625 0.375 -14.96875 C 0.3125 -13.289062 0.117188 -11.390625 -0.203125 -9.265625 C -0.535156 -7.148438 -1.070312 -4.992188 -1.8125 -2.796875 L -11.765625 -3.703125 C -10.453125 -7.578125 -9.664062 -10.8125 -9.40625 -13.40625 C -9.15625 -16 -9.273438 -18.039062 -9.765625 -19.53125 C -10.253906 -21.019531 -10.976562 -22.078125 -11.9375 -22.703125 C -12.894531 -23.335938 -13.882812 -23.65625 -14.90625 -23.65625 C -16.863281 -23.65625 -18.414062 -23.128906 -19.5625 -22.078125 C -20.707031 -21.035156 -21.59375 -19.144531 -22.21875 -16.40625 C -22.851562 -13.675781 -23.359375 -9.769531 -23.734375 -4.6875 L -50.046875 -4.6875 L -50.046875 -30.171875 L -40.453125 -30.171875 L -40.453125 -14.765625 Z M -31.703125 -14.765625 "/></g></g></g><g fill="#ffffff" fill-opacity="1"><g transform="translate(111.440357, 389.366134)"><g/></g></g><g fill="#ffffff" fill-opacity="1"><g transform="translate(111.440357, 362.487237)"><g><path d="M -10.78125 -7.703125 C -10.78125 -9.242188 -10.394531 -10.46875 -9.625 -11.375 C -8.851562 -12.28125 -7.921875 -12.882812 -6.828125 -13.1875 C -5.734375 -13.5 -4.625 -13.488281 -3.5 -13.15625 C -2.375 -12.832031 -1.425781 -12.210938 -0.65625 -11.296875 C 0.101562 -10.390625 0.484375 -9.191406 0.484375 -7.703125 C 0.484375 -6.203125 0.101562 -5 -0.65625 -4.09375 C -1.425781 -3.1875 -2.359375 -2.578125 -3.453125 -2.265625 C -4.554688 -1.960938 -5.664062 -1.960938 -6.78125 -2.265625 C -7.90625 -2.578125 -8.851562 -3.1875 -9.625 -4.09375 C -10.394531 -5 -10.78125 -6.203125 -10.78125 -7.703125 Z M -10.78125 -7.703125 "/></g></g></g><g fill="#ffffff" fill-opacity="1"><g transform="translate(111.440357, 338.408182)"><g/></g></g><g fill="#ffffff" fill-opacity="1"><g transform="translate(111.440357, 311.529262)"><g><path d="M 0 -2.234375 L -10.015625 -2.234375 L -10.015625 -11.828125 C -10.015625 -13.273438 -10.503906 -14.488281 -11.484375 -15.46875 C -12.460938 -16.445312 -13.648438 -16.9375 -15.046875 -16.9375 L -50.046875 -16.9375 L -50.046875 -26.875 L -15.046875 -26.875 C -12.296875 -26.875 -9.773438 -26.207031 -7.484375 -24.875 C -5.203125 -23.550781 -3.382812 -21.78125 -2.03125 -19.5625 C -0.675781 -17.34375 0 -14.859375 0 -12.109375 Z M 0 -2.234375 "/></g></g></g><g fill="#ffffff" fill-opacity="1"><g transform="translate(111.440357, 271.981047)"><g><path d="M -17.4375 -41.515625 C -14.019531 -41.515625 -11.097656 -40.859375 -8.671875 -39.546875 C -6.253906 -38.242188 -4.320312 -36.519531 -2.875 -34.375 C -1.425781 -32.226562 -0.457031 -29.867188 0.03125 -27.296875 C 0.519531 -24.734375 0.519531 -22.15625 0.03125 -19.5625 C -0.457031 -16.976562 -1.425781 -14.609375 -2.875 -12.453125 C -4.320312 -10.304688 -6.253906 -8.578125 -8.671875 -7.265625 C -11.097656 -5.960938 -14.019531 -5.3125 -17.4375 -5.3125 L -50.046875 -5.3125 L -50.046875 -15.328125 L -17.5 -15.328125 C -15.394531 -15.328125 -13.710938 -15.875 -12.453125 -16.96875 C -11.191406 -18.070312 -10.351562 -19.425781 -9.9375 -21.03125 C -9.519531 -22.644531 -9.519531 -24.253906 -9.9375 -25.859375 C -10.351562 -27.472656 -11.191406 -28.828125 -12.453125 -29.921875 C -13.710938 -31.015625 -15.394531 -31.5625 -17.5 -31.5625 L -50.046875 -31.5625 L -50.046875 -41.515625 Z M -17.4375 -41.515625 "/></g></g></g><g fill="#ffffff" fill-opacity="1"><g transform="translate(111.440357, 218.01362)"><g><path d="M -50.046875 -5.59375 L -50.046875 -15.609375 L -10.015625 -15.609375 L -10.015625 -31.5 L 0 -31.5 L 0 -5.59375 Z M -50.046875 -5.59375 "/></g></g></g><g fill="#ffffff" fill-opacity="1"><g transform="translate(111.440357, 176.505511)"><g><path d="M 0 -40.59375 L 0 -30.59375 L -20.015625 -30.59375 L -20.015625 -15.609375 L 0 -15.609375 L 0 -5.59375 L -50.046875 -5.59375 L -50.046875 -15.609375 L -30.03125 -15.609375 L -30.03125 -30.59375 L -50.046875 -30.59375 L -50.046875 -40.59375 Z M 0 -40.59375 "/></g></g></g><g fill="#ffffff" fill-opacity="1"><g transform="translate(111.440357, 123.238028)"><g><path d="M 0.703125 -29.6875 C 0.703125 -25.382812 -0.0195312 -21.613281 -1.46875 -18.375 C -2.914062 -15.132812 -4.863281 -12.4375 -7.3125 -10.28125 C -9.757812 -8.132812 -12.523438 -6.523438 -15.609375 -5.453125 C -18.691406 -4.378906 -21.851562 -3.84375 -25.09375 -3.84375 C -28.332031 -3.84375 -31.492188 -4.378906 -34.578125 -5.453125 C -37.660156 -6.523438 -40.425781 -8.132812 -42.875 -10.28125 C -45.320312 -12.4375 -47.269531 -15.132812 -48.71875 -18.375 C -50.164062 -21.613281 -50.890625 -25.382812 -50.890625 -29.6875 C -50.890625 -33.976562 -50.164062 -37.742188 -48.71875 -40.984375 C -47.269531 -44.222656 -45.320312 -46.914062 -42.875 -49.0625 C -40.425781 -51.21875 -37.660156 -52.832031 -34.578125 -53.90625 C -31.492188 -54.976562 -28.332031 -55.515625 -25.09375 -55.515625 C -21.851562 -55.515625 -18.691406 -54.976562 -15.609375 -53.90625 C -12.523438 -52.832031 -9.757812 -51.21875 -7.3125 -49.0625 C -4.863281 -46.914062 -2.914062 -44.222656 -1.46875 -40.984375 C -0.0195312 -37.742188 0.703125 -33.976562 0.703125 -29.6875 Z M -9.65625 -29.6875 C -9.65625 -32.53125 -10.210938 -34.976562 -11.328125 -37.03125 C -12.453125 -39.082031 -13.9375 -40.710938 -15.78125 -41.921875 C -17.625 -43.140625 -19.640625 -43.957031 -21.828125 -44.375 C -24.023438 -44.800781 -26.21875 -44.800781 -28.40625 -44.375 C -30.601562 -43.957031 -32.625 -43.140625 -34.46875 -41.921875 C -36.3125 -40.710938 -37.789062 -39.082031 -38.90625 -37.03125 C -40.03125 -34.976562 -40.59375 -32.53125 -40.59375 -29.6875 C -40.59375 -26.832031 -40.03125 -24.378906 -38.90625 -22.328125 C -37.789062 -20.273438 -36.3125 -18.640625 -34.46875 -17.421875 C -32.625 -16.210938 -30.601562 -15.394531 -28.40625 -14.96875 C -26.21875 -14.550781 -24.023438 -14.550781 -21.828125 -14.96875 C -19.640625 -15.394531 -17.625 -16.210938 -15.78125 -17.421875 C -13.9375 -18.640625 -12.453125 -20.273438 -11.328125 -22.328125 C -10.210938 -24.378906 -9.65625 -26.832031 -9.65625 -29.6875 Z M -9.65625 -29.6875 "/></g></g></g></svg>